<svg xmlns="http://www.w3.org/2000/svg" width="150" viewBox="0 0 150 37.5" height="37.5" version="1.0"><g fill="#FF1616" fill-opacity=".302"><g><g><path d="M 2.757812 -5.511719 C 2.105469 -5.511719 1.574219 -6.046875 1.574219 -6.695312 C 1.574219 -7.347656 2.105469 -7.878906 2.757812 -7.878906 L 6.449219 -7.878906 C 7.167969 -7.878906 7.808594 -8.386719 7.972656 -9.097656 L 8.054688 -9.464844 L 2.757812 -9.464844 C 1.230469 -9.464844 0 -8.222656 0 -6.695312 C 0 -5.167969 1.230469 -3.9375 2.757812 -3.9375 L 5.300781 -3.9375 C 5.949219 -3.9375 6.484375 -3.40625 6.484375 -2.757812 C 6.484375 -2.105469 5.949219 -1.574219 5.300781 -1.574219 L 0 -1.574219 L 0.0820312 -1.207031 C 0.25 -0.496094 0.875 0 1.609375 0 L 5.300781 0 C 6.824219 0 8.054688 -1.230469 8.054688 -2.757812 C 8.054688 -4.28125 6.824219 -5.511719 5.300781 -5.511719 Z M 2.757812 -5.511719" transform="translate(4.16 23.71)"/></g></g></g><g fill="#FF1616" fill-opacity=".302"><g><g><path d="M 7.832031 -0.0703125 L 7.15625 -1.726562 L 4.742188 -7.546875 L 4.828125 -7.738281 L 5.511719 -9.382812 L 5.144531 -9.441406 C 4.695312 -9.511719 4.246094 -9.382812 3.914062 -9.097656 C 3.585938 -9.382812 3.136719 -9.511719 2.683594 -9.441406 L 2.320312 -9.382812 L 3.003906 -7.738281 L 3.085938 -7.546875 L 0.675781 -1.714844 L 0 -0.0703125 L 0.355469 -0.0117188 C 1.066406 0.09375 1.75 -0.285156 2.023438 -0.933594 L 2.105469 -1.148438 L 3.914062 -5.523438 L 5.726562 -1.148438 L 5.808594 -0.933594 C 6.082031 -0.285156 6.765625 0.09375 7.476562 -0.0117188 Z M 7.832031 -0.0703125" transform="translate(12.918 23.71)"/></g></g></g><g fill="#FF1616" fill-opacity=".302"><g><g><path d="M 8.054688 -9.464844 L 7.691406 -9.371094 C 6.980469 -9.214844 6.484375 -8.578125 6.484375 -7.84375 L 6.484375 -2.355469 C 6.421875 -2.4375 6.375 -2.519531 6.328125 -2.601562 L 4.992188 -4.542969 L 4.128906 -5.808594 L 1.574219 -9.464844 L 1.207031 -9.371094 C 0.496094 -9.214844 0 -8.578125 0 -7.84375 L 0 0 L 0.355469 -0.0820312 C 1.066406 -0.25 1.574219 -0.875 1.574219 -1.609375 L 1.574219 -6.742188 L 2.828125 -4.910156 L 3.691406 -3.644531 L 6.484375 0 L 6.835938 -0.0820312 C 7.546875 -0.25 8.054688 -0.875 8.054688 -1.609375 Z M 8.054688 -9.464844" transform="translate(21.356 23.71)"/></g></g></g><g fill="#FF1616" fill-opacity=".302"><g><g><path d="M 8.054688 -6.328125 C 8.054688 -8.054688 6.660156 -9.464844 4.921875 -9.464844 L 0 -9.464844 L 0.0820312 -9.097656 C 0.25 -8.386719 0.875 -7.878906 1.609375 -7.878906 L 4.496094 -7.878906 C 5.59375 -7.878906 6.484375 -6.992188 6.484375 -5.902344 L 6.484375 -3.550781 C 6.484375 -2.460938 5.59375 -1.574219 4.496094 -1.574219 L 2.246094 -1.574219 C 1.871094 -1.574219 1.574219 -1.871094 1.574219 -2.246094 L 1.574219 -6.519531 C 1.574219 -7.25 1.066406 -7.878906 0.355469 -8.042969 L 0 -8.128906 L 0 0 L 4.921875 0 C 6.660156 0 8.054688 -1.394531 8.054688 -3.125 Z M 8.054688 -6.328125" transform="translate(30.114 23.71)"/></g></g></g><g fill="#FF1616" fill-opacity=".302"><g><g><path d="M 7.832031 -0.0703125 L 7.15625 -1.726562 L 4.742188 -7.546875 L 4.828125 -7.738281 L 5.511719 -9.382812 L 5.144531 -9.441406 C 4.695312 -9.511719 4.246094 -9.382812 3.914062 -9.097656 C 3.585938 -9.382812 3.136719 -9.511719 2.683594 -9.441406 L 2.320312 -9.382812 L 3.003906 -7.738281 L 3.085938 -7.546875 L 0.675781 -1.714844 L 0 -0.0703125 L 0.355469 -0.0117188 C 1.066406 0.09375 1.75 -0.285156 2.023438 -0.933594 L 2.105469 -1.148438 L 3.914062 -5.523438 L 5.726562 -1.148438 L 5.808594 -0.933594 C 6.082031 -0.285156 6.765625 0.09375 7.476562 -0.0117188 Z M 7.832031 -0.0703125" transform="translate(38.895 23.71)"/></g></g></g><g fill="#FF1616" fill-opacity=".302"><g><g><path d="M 8.054688 -6.921875 C 8.054688 -8.316406 6.921875 -9.464844 5.511719 -9.464844 L 0 -9.464844 L 0 0 L 0.402344 -0.0820312 C 1.089844 -0.25 1.574219 -0.863281 1.574219 -1.5625 L 1.574219 -7.878906 L 5.347656 -7.878906 C 5.972656 -7.878906 6.484375 -7.371094 6.484375 -6.753906 L 6.484375 -6.234375 C 6.484375 -5.632812 5.984375 -5.132812 5.382812 -5.132812 L 2.011719 -5.132812 L 2.09375 -4.78125 C 2.246094 -4.128906 2.792969 -3.644531 3.441406 -3.574219 L 5.820312 -0.578125 C 6.269531 -0.0117188 7.0625 0.164062 7.726562 -0.140625 L 8.054688 -0.308594 L 5.464844 -3.5625 L 5.511719 -3.5625 C 6.921875 -3.5625 8.054688 -4.695312 8.054688 -6.105469 Z M 8.054688 -6.921875" transform="translate(47.334 23.71)"/></g></g></g><g fill="#FF1616" fill-opacity=".302"><g><g><path d="M 8.054688 -9.464844 L 7.691406 -9.371094 C 6.980469 -9.214844 6.484375 -8.578125 6.484375 -7.84375 L 6.484375 -4.023438 C 6.484375 -2.671875 5.382812 -1.574219 4.023438 -1.574219 C 2.671875 -1.574219 1.574219 -2.671875 1.574219 -4.023438 L 1.574219 -9.464844 L 1.207031 -9.371094 C 0.496094 -9.214844 0 -8.578125 0 -7.84375 L 0 -3.773438 C 0 -1.691406 1.691406 0 3.773438 0 L 4.28125 0 C 6.363281 0 8.054688 -1.691406 8.054688 -3.773438 Z M 8.054688 -9.464844" transform="translate(56.091 23.71)"/></g></g></g><g fill="#FF1616" fill-opacity=".302"><g><g><path d="M 8.066406 -9.464844 L 5.691406 -9.464844 C 4.339844 -9.464844 3.242188 -8.363281 3.242188 -7.003906 L 3.242188 0 L 3.609375 -0.0820312 C 4.316406 -0.25 4.816406 -0.898438 4.816406 -1.65625 L 4.816406 -6.695312 C 4.816406 -7.347656 5.347656 -7.878906 5.996094 -7.878906 L 6.449219 -7.878906 C 7.179688 -7.878906 7.820312 -8.386719 7.984375 -9.097656 Z M 3.75 -9.464844 L 1.609375 -9.464844 C 1.550781 -9.464844 1.492188 -9.453125 1.429688 -9.453125 C 0.769531 -9.371094 0.226562 -8.894531 0.0820312 -8.246094 L 0 -7.878906 L 2.140625 -7.878906 C 2.199219 -7.878906 2.257812 -7.878906 2.320312 -7.890625 C 2.96875 -7.960938 3.511719 -8.445312 3.667969 -9.097656 Z M 3.75 -9.464844" transform="translate(68.394 23.71)"/></g></g></g><g fill="#FF1616" fill-opacity=".302"><g><g><path d="M 5.820312 -5.511719 L 1.574219 -5.511719 L 1.574219 -9.464844 L 1.207031 -9.371094 C 0.496094 -9.214844 0 -8.578125 0 -7.84375 L 0 0 L 0.355469 -0.0820312 C 1.066406 -0.25 1.574219 -0.875 1.574219 -1.609375 L 1.574219 -3.9375 L 4.210938 -3.9375 C 4.945312 -3.9375 5.570312 -4.449219 5.738281 -5.15625 Z M 7.785156 -9.464844 L 7.417969 -9.371094 C 6.707031 -9.214844 6.210938 -8.578125 6.210938 -7.84375 L 6.210938 0 L 6.566406 -0.0820312 C 7.277344 -0.25 7.785156 -0.875 7.785156 -1.609375 Z M 7.785156 -9.464844" transform="translate(77.152 23.71)"/></g></g></g><g fill="#FF1616" fill-opacity=".302"><g><g><path d="M 7.832031 -0.0703125 L 7.15625 -1.726562 L 4.742188 -7.546875 L 4.828125 -7.738281 L 5.511719 -9.382812 L 5.144531 -9.441406 C 4.695312 -9.511719 4.246094 -9.382812 3.914062 -9.097656 C 3.585938 -9.382812 3.136719 -9.511719 2.683594 -9.441406 L 2.320312 -9.382812 L 3.003906 -7.738281 L 3.085938 -7.546875 L 0.675781 -1.714844 L 0 -0.0703125 L 0.355469 -0.0117188 C 1.066406 0.09375 1.75 -0.285156 2.023438 -0.933594 L 2.105469 -1.148438 L 3.914062 -5.523438 L 5.726562 -1.148438 L 5.808594 -0.933594 C 6.082031 -0.285156 6.765625 0.09375 7.476562 -0.0117188 Z M 7.832031 -0.0703125" transform="translate(85.72 23.71)"/></g></g></g><g fill="#FF1616" fill-opacity=".302"><g><g><path d="M 8.054688 -6.921875 C 8.054688 -8.316406 6.921875 -9.464844 5.511719 -9.464844 L 0 -9.464844 L 0 0 L 0.402344 -0.0820312 C 1.089844 -0.25 1.574219 -0.863281 1.574219 -1.5625 L 1.574219 -7.878906 L 5.347656 -7.878906 C 5.972656 -7.878906 6.484375 -7.371094 6.484375 -6.753906 L 6.484375 -6.234375 C 6.484375 -5.632812 5.984375 -5.132812 5.382812 -5.132812 L 2.011719 -5.132812 L 2.09375 -4.78125 C 2.246094 -4.128906 2.792969 -3.644531 3.441406 -3.574219 L 5.820312 -0.578125 C 6.269531 -0.0117188 7.0625 0.164062 7.726562 -0.140625 L 8.054688 -0.308594 L 5.464844 -3.5625 L 5.511719 -3.5625 C 6.921875 -3.5625 8.054688 -4.695312 8.054688 -6.105469 Z M 8.054688 -6.921875" transform="translate(94.159 23.71)"/></g></g></g><g fill="#FF1616" fill-opacity=".302"><g><g><path d="M 8.054688 -9.464844 L 7.691406 -9.371094 C 6.980469 -9.214844 6.484375 -8.578125 6.484375 -7.84375 L 6.484375 -4.023438 C 6.484375 -2.671875 5.382812 -1.574219 4.023438 -1.574219 C 2.671875 -1.574219 1.574219 -2.671875 1.574219 -4.023438 L 1.574219 -9.464844 L 1.207031 -9.371094 C 0.496094 -9.214844 0 -8.578125 0 -7.84375 L 0 -3.773438 C 0 -1.691406 1.691406 0 3.773438 0 L 4.28125 0 C 6.363281 0 8.054688 -1.691406 8.054688 -3.773438 Z M 8.054688 -9.464844" transform="translate(102.916 23.71)"/></g></g></g><g fill="#FF1616" fill-opacity=".302"><g><g><path d="M 8.054688 -9.464844 L 7.691406 -9.371094 C 6.980469 -9.214844 6.484375 -8.578125 6.484375 -7.84375 L 6.484375 -2.355469 C 6.421875 -2.4375 6.375 -2.519531 6.328125 -2.601562 L 4.992188 -4.542969 L 4.128906 -5.808594 L 1.574219 -9.464844 L 1.207031 -9.371094 C 0.496094 -9.214844 0 -8.578125 0 -7.84375 L 0 0 L 0.355469 -0.0820312 C 1.066406 -0.25 1.574219 -0.875 1.574219 -1.609375 L 1.574219 -6.742188 L 2.828125 -4.910156 L 3.691406 -3.644531 L 6.484375 0 L 6.835938 -0.0820312 C 7.546875 -0.25 8.054688 -0.875 8.054688 -1.609375 Z M 8.054688 -9.464844" transform="translate(111.674 23.71)"/></g></g></g><g fill="#FF1616" fill-opacity=".302"><g><g><path d="M 8.066406 0.0117188 L 7.972656 -0.355469 C 7.820312 -1.066406 7.179688 -1.5625 6.449219 -1.5625 L 2.957031 -1.5625 C 2.1875 -1.5625 1.574219 -2.1875 1.574219 -2.945312 L 1.574219 -3.113281 C 1.574219 -3.84375 1.066406 -4.472656 0.355469 -4.636719 L 0 -4.71875 L 0 -2.875 C 0 -1.277344 1.289062 0.0117188 2.886719 0.0117188 Z M 8.066406 -9.464844 L 2.757812 -9.464844 C 1.230469 -9.464844 0 -8.222656 0 -6.695312 C 0 -5.167969 1.230469 -3.925781 2.757812 -3.9375 L 4.695312 -3.9375 C 5.429688 -3.9375 6.058594 -4.4375 6.222656 -5.144531 L 6.304688 -5.511719 L 2.757812 -5.511719 C 2.105469 -5.511719 1.574219 -6.046875 1.574219 -6.695312 C 1.574219 -7.347656 2.105469 -7.878906 2.757812 -7.878906 L 6.449219 -7.878906 C 7.179688 -7.878906 7.820312 -8.386719 7.984375 -9.097656 Z M 8.066406 -9.464844" transform="translate(120.432 23.71)"/></g></g></g><g fill="#FF1616" fill-opacity=".302"><g><g><path d="M 8.066406 -9.464844 L 5.691406 -9.464844 C 4.339844 -9.464844 3.242188 -8.363281 3.242188 -7.003906 L 3.242188 0 L 3.609375 -0.0820312 C 4.316406 -0.25 4.816406 -0.898438 4.816406 -1.65625 L 4.816406 -6.695312 C 4.816406 -7.347656 5.347656 -7.878906 5.996094 -7.878906 L 6.449219 -7.878906 C 7.179688 -7.878906 7.820312 -8.386719 7.984375 -9.097656 Z M 3.75 -9.464844 L 1.609375 -9.464844 C 1.550781 -9.464844 1.492188 -9.453125 1.429688 -9.453125 C 0.769531 -9.371094 0.226562 -8.894531 0.0820312 -8.246094 L 0 -7.878906 L 2.140625 -7.878906 C 2.199219 -7.878906 2.257812 -7.878906 2.320312 -7.890625 C 2.96875 -7.960938 3.511719 -8.445312 3.667969 -9.097656 Z M 3.75 -9.464844" transform="translate(129.19 23.71)"/></g></g></g><g fill="#FF1616" fill-opacity=".302"><g><g><path d="M 5.820312 -5.511719 L 1.574219 -5.511719 L 1.574219 -9.464844 L 1.207031 -9.371094 C 0.496094 -9.214844 0 -8.578125 0 -7.84375 L 0 0 L 0.355469 -0.0820312 C 1.066406 -0.25 1.574219 -0.875 1.574219 -1.609375 L 1.574219 -3.9375 L 4.210938 -3.9375 C 4.945312 -3.9375 5.570312 -4.449219 5.738281 -5.15625 Z M 7.785156 -9.464844 L 7.417969 -9.371094 C 6.707031 -9.214844 6.210938 -8.578125 6.210938 -7.84375 L 6.210938 0 L 6.566406 -0.0820312 C 7.277344 -0.25 7.785156 -0.875 7.785156 -1.609375 Z M 7.785156 -9.464844" transform="translate(137.947 23.71)"/></g></g></g><g fill="#FF1616" fill-opacity=".502"><g><g><path d="M 2.757812 -5.511719 C 2.105469 -5.511719 1.574219 -6.046875 1.574219 -6.695312 C 1.574219 -7.347656 2.105469 -7.878906 2.757812 -7.878906 L 6.449219 -7.878906 C 7.167969 -7.878906 7.808594 -8.386719 7.972656 -9.097656 L 8.054688 -9.464844 L 2.757812 -9.464844 C 1.230469 -9.464844 0 -8.222656 0 -6.695312 C 0 -5.167969 1.230469 -3.9375 2.757812 -3.9375 L 5.300781 -3.9375 C 5.949219 -3.9375 6.484375 -3.40625 6.484375 -2.757812 C 6.484375 -2.105469 5.949219 -1.574219 5.300781 -1.574219 L 0 -1.574219 L 0.0820312 -1.207031 C 0.25 -0.496094 0.875 0 1.609375 0 L 5.300781 0 C 6.824219 0 8.054688 -1.230469 8.054688 -2.757812 C 8.054688 -4.28125 6.824219 -5.511719 5.300781 -5.511719 Z M 2.757812 -5.511719" transform="translate(3.992 22.644)"/></g></g></g><g fill="#FF1616" fill-opacity=".502"><g><g><path d="M 7.832031 -0.0703125 L 7.15625 -1.726562 L 4.742188 -7.546875 L 4.828125 -7.738281 L 5.511719 -9.382812 L 5.144531 -9.441406 C 4.695312 -9.511719 4.246094 -9.382812 3.914062 -9.097656 C 3.585938 -9.382812 3.136719 -9.511719 2.683594 -9.441406 L 2.320312 -9.382812 L 3.003906 -7.738281 L 3.085938 -7.546875 L 0.675781 -1.714844 L 0 -0.0703125 L 0.355469 -0.0117188 C 1.066406 0.09375 1.75 -0.285156 2.023438 -0.933594 L 2.105469 -1.148438 L 3.914062 -5.523438 L 5.726562 -1.148438 L 5.808594 -0.933594 C 6.082031 -0.285156 6.765625 0.09375 7.476562 -0.0117188 Z M 7.832031 -0.0703125" transform="translate(12.75 22.644)"/></g></g></g><g fill="#FF1616" fill-opacity=".502"><g><g><path d="M 8.054688 -9.464844 L 7.691406 -9.371094 C 6.980469 -9.214844 6.484375 -8.578125 6.484375 -7.84375 L 6.484375 -2.355469 C 6.421875 -2.4375 6.375 -2.519531 6.328125 -2.601562 L 4.992188 -4.542969 L 4.128906 -5.808594 L 1.574219 -9.464844 L 1.207031 -9.371094 C 0.496094 -9.214844 0 -8.578125 0 -7.84375 L 0 0 L 0.355469 -0.0820312 C 1.066406 -0.25 1.574219 -0.875 1.574219 -1.609375 L 1.574219 -6.742188 L 2.828125 -4.910156 L 3.691406 -3.644531 L 6.484375 0 L 6.835938 -0.0820312 C 7.546875 -0.25 8.054688 -0.875 8.054688 -1.609375 Z M 8.054688 -9.464844" transform="translate(21.188 22.644)"/></g></g></g><g fill="#FF1616" fill-opacity=".502"><g><g><path d="M 8.054688 -6.328125 C 8.054688 -8.054688 6.660156 -9.464844 4.921875 -9.464844 L 0 -9.464844 L 0.0820312 -9.097656 C 0.25 -8.386719 0.875 -7.878906 1.609375 -7.878906 L 4.496094 -7.878906 C 5.59375 -7.878906 6.484375 -6.992188 6.484375 -5.902344 L 6.484375 -3.550781 C 6.484375 -2.460938 5.59375 -1.574219 4.496094 -1.574219 L 2.246094 -1.574219 C 1.871094 -1.574219 1.574219 -1.871094 1.574219 -2.246094 L 1.574219 -6.519531 C 1.574219 -7.25 1.066406 -7.878906 0.355469 -8.042969 L 0 -8.128906 L 0 0 L 4.921875 0 C 6.660156 0 8.054688 -1.394531 8.054688 -3.125 Z M 8.054688 -6.328125" transform="translate(29.945 22.644)"/></g></g></g><g fill="#FF1616" fill-opacity=".502"><g><g><path d="M 7.832031 -0.0703125 L 7.15625 -1.726562 L 4.742188 -7.546875 L 4.828125 -7.738281 L 5.511719 -9.382812 L 5.144531 -9.441406 C 4.695312 -9.511719 4.246094 -9.382812 3.914062 -9.097656 C 3.585938 -9.382812 3.136719 -9.511719 2.683594 -9.441406 L 2.320312 -9.382812 L 3.003906 -7.738281 L 3.085938 -7.546875 L 0.675781 -1.714844 L 0 -0.0703125 L 0.355469 -0.0117188 C 1.066406 0.09375 1.75 -0.285156 2.023438 -0.933594 L 2.105469 -1.148438 L 3.914062 -5.523438 L 5.726562 -1.148438 L 5.808594 -0.933594 C 6.082031 -0.285156 6.765625 0.09375 7.476562 -0.0117188 Z M 7.832031 -0.0703125" transform="translate(38.726 22.644)"/></g></g></g><g fill="#FF1616" fill-opacity=".502"><g><g><path d="M 8.054688 -6.921875 C 8.054688 -8.316406 6.921875 -9.464844 5.511719 -9.464844 L 0 -9.464844 L 0 0 L 0.402344 -0.0820312 C 1.089844 -0.25 1.574219 -0.863281 1.574219 -1.5625 L 1.574219 -7.878906 L 5.347656 -7.878906 C 5.972656 -7.878906 6.484375 -7.371094 6.484375 -6.753906 L 6.484375 -6.234375 C 6.484375 -5.632812 5.984375 -5.132812 5.382812 -5.132812 L 2.011719 -5.132812 L 2.09375 -4.78125 C 2.246094 -4.128906 2.792969 -3.644531 3.441406 -3.574219 L 5.820312 -0.578125 C 6.269531 -0.0117188 7.0625 0.164062 7.726562 -0.140625 L 8.054688 -0.308594 L 5.464844 -3.5625 L 5.511719 -3.5625 C 6.921875 -3.5625 8.054688 -4.695312 8.054688 -6.105469 Z M 8.054688 -6.921875" transform="translate(47.165 22.644)"/></g></g></g><g fill="#FF1616" fill-opacity=".502"><g><g><path d="M 8.054688 -9.464844 L 7.691406 -9.371094 C 6.980469 -9.214844 6.484375 -8.578125 6.484375 -7.84375 L 6.484375 -4.023438 C 6.484375 -2.671875 5.382812 -1.574219 4.023438 -1.574219 C 2.671875 -1.574219 1.574219 -2.671875 1.574219 -4.023438 L 1.574219 -9.464844 L 1.207031 -9.371094 C 0.496094 -9.214844 0 -8.578125 0 -7.84375 L 0 -3.773438 C 0 -1.691406 1.691406 0 3.773438 0 L 4.28125 0 C 6.363281 0 8.054688 -1.691406 8.054688 -3.773438 Z M 8.054688 -9.464844" transform="translate(55.922 22.644)"/></g></g></g><g fill="#FF1616" fill-opacity=".502"><g><g><path d="M 8.066406 -9.464844 L 5.691406 -9.464844 C 4.339844 -9.464844 3.242188 -8.363281 3.242188 -7.003906 L 3.242188 0 L 3.609375 -0.0820312 C 4.316406 -0.25 4.816406 -0.898438 4.816406 -1.65625 L 4.816406 -6.695312 C 4.816406 -7.347656 5.347656 -7.878906 5.996094 -7.878906 L 6.449219 -7.878906 C 7.179688 -7.878906 7.820312 -8.386719 7.984375 -9.097656 Z M 3.75 -9.464844 L 1.609375 -9.464844 C 1.550781 -9.464844 1.492188 -9.453125 1.429688 -9.453125 C 0.769531 -9.371094 0.226562 -8.894531 0.0820312 -8.246094 L 0 -7.878906 L 2.140625 -7.878906 C 2.199219 -7.878906 2.257812 -7.878906 2.320312 -7.890625 C 2.96875 -7.960938 3.511719 -8.445312 3.667969 -9.097656 Z M 3.75 -9.464844" transform="translate(68.226 22.644)"/></g></g></g><g fill="#FF1616" fill-opacity=".502"><g><g><path d="M 5.820312 -5.511719 L 1.574219 -5.511719 L 1.574219 -9.464844 L 1.207031 -9.371094 C 0.496094 -9.214844 0 -8.578125 0 -7.84375 L 0 0 L 0.355469 -0.0820312 C 1.066406 -0.25 1.574219 -0.875 1.574219 -1.609375 L 1.574219 -3.9375 L 4.210938 -3.9375 C 4.945312 -3.9375 5.570312 -4.449219 5.738281 -5.15625 Z M 7.785156 -9.464844 L 7.417969 -9.371094 C 6.707031 -9.214844 6.210938 -8.578125 6.210938 -7.84375 L 6.210938 0 L 6.566406 -0.0820312 C 7.277344 -0.25 7.785156 -0.875 7.785156 -1.609375 Z M 7.785156 -9.464844" transform="translate(76.983 22.644)"/></g></g></g><g fill="#FF1616" fill-opacity=".502"><g><g><path d="M 7.832031 -0.0703125 L 7.15625 -1.726562 L 4.742188 -7.546875 L 4.828125 -7.738281 L 5.511719 -9.382812 L 5.144531 -9.441406 C 4.695312 -9.511719 4.246094 -9.382812 3.914062 -9.097656 C 3.585938 -9.382812 3.136719 -9.511719 2.683594 -9.441406 L 2.320312 -9.382812 L 3.003906 -7.738281 L 3.085938 -7.546875 L 0.675781 -1.714844 L 0 -0.0703125 L 0.355469 -0.0117188 C 1.066406 0.09375 1.75 -0.285156 2.023438 -0.933594 L 2.105469 -1.148438 L 3.914062 -5.523438 L 5.726562 -1.148438 L 5.808594 -0.933594 C 6.082031 -0.285156 6.765625 0.09375 7.476562 -0.0117188 Z M 7.832031 -0.0703125" transform="translate(85.552 22.644)"/></g></g></g><g fill="#FF1616" fill-opacity=".502"><g><g><path d="M 8.054688 -6.921875 C 8.054688 -8.316406 6.921875 -9.464844 5.511719 -9.464844 L 0 -9.464844 L 0 0 L 0.402344 -0.0820312 C 1.089844 -0.25 1.574219 -0.863281 1.574219 -1.5625 L 1.574219 -7.878906 L 5.347656 -7.878906 C 5.972656 -7.878906 6.484375 -7.371094 6.484375 -6.753906 L 6.484375 -6.234375 C 6.484375 -5.632812 5.984375 -5.132812 5.382812 -5.132812 L 2.011719 -5.132812 L 2.09375 -4.78125 C 2.246094 -4.128906 2.792969 -3.644531 3.441406 -3.574219 L 5.820312 -0.578125 C 6.269531 -0.0117188 7.0625 0.164062 7.726562 -0.140625 L 8.054688 -0.308594 L 5.464844 -3.5625 L 5.511719 -3.5625 C 6.921875 -3.5625 8.054688 -4.695312 8.054688 -6.105469 Z M 8.054688 -6.921875" transform="translate(93.99 22.644)"/></g></g></g><g fill="#FF1616" fill-opacity=".502"><g><g><path d="M 8.054688 -9.464844 L 7.691406 -9.371094 C 6.980469 -9.214844 6.484375 -8.578125 6.484375 -7.84375 L 6.484375 -4.023438 C 6.484375 -2.671875 5.382812 -1.574219 4.023438 -1.574219 C 2.671875 -1.574219 1.574219 -2.671875 1.574219 -4.023438 L 1.574219 -9.464844 L 1.207031 -9.371094 C 0.496094 -9.214844 0 -8.578125 0 -7.84375 L 0 -3.773438 C 0 -1.691406 1.691406 0 3.773438 0 L 4.28125 0 C 6.363281 0 8.054688 -1.691406 8.054688 -3.773438 Z M 8.054688 -9.464844" transform="translate(102.748 22.644)"/></g></g></g><g fill="#FF1616" fill-opacity=".502"><g><g><path d="M 8.054688 -9.464844 L 7.691406 -9.371094 C 6.980469 -9.214844 6.484375 -8.578125 6.484375 -7.84375 L 6.484375 -2.355469 C 6.421875 -2.4375 6.375 -2.519531 6.328125 -2.601562 L 4.992188 -4.542969 L 4.128906 -5.808594 L 1.574219 -9.464844 L 1.207031 -9.371094 C 0.496094 -9.214844 0 -8.578125 0 -7.84375 L 0 0 L 0.355469 -0.0820312 C 1.066406 -0.25 1.574219 -0.875 1.574219 -1.609375 L 1.574219 -6.742188 L 2.828125 -4.910156 L 3.691406 -3.644531 L 6.484375 0 L 6.835938 -0.0820312 C 7.546875 -0.25 8.054688 -0.875 8.054688 -1.609375 Z M 8.054688 -9.464844" transform="translate(111.505 22.644)"/></g></g></g><g fill="#FF1616" fill-opacity=".502"><g><g><path d="M 8.066406 0.0117188 L 7.972656 -0.355469 C 7.820312 -1.066406 7.179688 -1.5625 6.449219 -1.5625 L 2.957031 -1.5625 C 2.1875 -1.5625 1.574219 -2.1875 1.574219 -2.945312 L 1.574219 -3.113281 C 1.574219 -3.84375 1.066406 -4.472656 0.355469 -4.636719 L 0 -4.71875 L 0 -2.875 C 0 -1.277344 1.289062 0.0117188 2.886719 0.0117188 Z M 8.066406 -9.464844 L 2.757812 -9.464844 C 1.230469 -9.464844 0 -8.222656 0 -6.695312 C 0 -5.167969 1.230469 -3.925781 2.757812 -3.9375 L 4.695312 -3.9375 C 5.429688 -3.9375 6.058594 -4.4375 6.222656 -5.144531 L 6.304688 -5.511719 L 2.757812 -5.511719 C 2.105469 -5.511719 1.574219 -6.046875 1.574219 -6.695312 C 1.574219 -7.347656 2.105469 -7.878906 2.757812 -7.878906 L 6.449219 -7.878906 C 7.179688 -7.878906 7.820312 -8.386719 7.984375 -9.097656 Z M 8.066406 -9.464844" transform="translate(120.263 22.644)"/></g></g></g><g fill="#FF1616" fill-opacity=".502"><g><g><path d="M 8.066406 -9.464844 L 5.691406 -9.464844 C 4.339844 -9.464844 3.242188 -8.363281 3.242188 -7.003906 L 3.242188 0 L 3.609375 -0.0820312 C 4.316406 -0.25 4.816406 -0.898438 4.816406 -1.65625 L 4.816406 -6.695312 C 4.816406 -7.347656 5.347656 -7.878906 5.996094 -7.878906 L 6.449219 -7.878906 C 7.179688 -7.878906 7.820312 -8.386719 7.984375 -9.097656 Z M 3.75 -9.464844 L 1.609375 -9.464844 C 1.550781 -9.464844 1.492188 -9.453125 1.429688 -9.453125 C 0.769531 -9.371094 0.226562 -8.894531 0.0820312 -8.246094 L 0 -7.878906 L 2.140625 -7.878906 C 2.199219 -7.878906 2.257812 -7.878906 2.320312 -7.890625 C 2.96875 -7.960938 3.511719 -8.445312 3.667969 -9.097656 Z M 3.75 -9.464844" transform="translate(129.02 22.644)"/></g></g></g><g fill="#FF1616" fill-opacity=".502"><g><g><path d="M 5.820312 -5.511719 L 1.574219 -5.511719 L 1.574219 -9.464844 L 1.207031 -9.371094 C 0.496094 -9.214844 0 -8.578125 0 -7.84375 L 0 0 L 0.355469 -0.0820312 C 1.066406 -0.25 1.574219 -0.875 1.574219 -1.609375 L 1.574219 -3.9375 L 4.210938 -3.9375 C 4.945312 -3.9375 5.570312 -4.449219 5.738281 -5.15625 Z M 7.785156 -9.464844 L 7.417969 -9.371094 C 6.707031 -9.214844 6.210938 -8.578125 6.210938 -7.84375 L 6.210938 0 L 6.566406 -0.0820312 C 7.277344 -0.25 7.785156 -0.875 7.785156 -1.609375 Z M 7.785156 -9.464844" transform="translate(137.778 22.644)"/></g></g></g><g><g><g><path d="M 2.757812 -5.511719 C 2.105469 -5.511719 1.574219 -6.046875 1.574219 -6.695312 C 1.574219 -7.347656 2.105469 -7.878906 2.757812 -7.878906 L 6.449219 -7.878906 C 7.167969 -7.878906 7.808594 -8.386719 7.972656 -9.097656 L 8.054688 -9.464844 L 2.757812 -9.464844 C 1.230469 -9.464844 0 -8.222656 0 -6.695312 C 0 -5.167969 1.230469 -3.9375 2.757812 -3.9375 L 5.300781 -3.9375 C 5.949219 -3.9375 6.484375 -3.40625 6.484375 -2.757812 C 6.484375 -2.105469 5.949219 -1.574219 5.300781 -1.574219 L 0 -1.574219 L 0.0820312 -1.207031 C 0.25 -0.496094 0.875 0 1.609375 0 L 5.300781 0 C 6.824219 0 8.054688 -1.230469 8.054688 -2.757812 C 8.054688 -4.28125 6.824219 -5.511719 5.300781 -5.511719 Z M 2.757812 -5.511719" transform="translate(3.823 21.578)"/></g></g></g><g><g><g><path d="M 7.832031 -0.0703125 L 7.15625 -1.726562 L 4.742188 -7.546875 L 4.828125 -7.738281 L 5.511719 -9.382812 L 5.144531 -9.441406 C 4.695312 -9.511719 4.246094 -9.382812 3.914062 -9.097656 C 3.585938 -9.382812 3.136719 -9.511719 2.683594 -9.441406 L 2.320312 -9.382812 L 3.003906 -7.738281 L 3.085938 -7.546875 L 0.675781 -1.714844 L 0 -0.0703125 L 0.355469 -0.0117188 C 1.066406 0.09375 1.75 -0.285156 2.023438 -0.933594 L 2.105469 -1.148438 L 3.914062 -5.523438 L 5.726562 -1.148438 L 5.808594 -0.933594 C 6.082031 -0.285156 6.765625 0.09375 7.476562 -0.0117188 Z M 7.832031 -0.0703125" transform="translate(12.58 21.578)"/></g></g></g><g><g><g><path d="M 8.054688 -9.464844 L 7.691406 -9.371094 C 6.980469 -9.214844 6.484375 -8.578125 6.484375 -7.84375 L 6.484375 -2.355469 C 6.421875 -2.4375 6.375 -2.519531 6.328125 -2.601562 L 4.992188 -4.542969 L 4.128906 -5.808594 L 1.574219 -9.464844 L 1.207031 -9.371094 C 0.496094 -9.214844 0 -8.578125 0 -7.84375 L 0 0 L 0.355469 -0.0820312 C 1.066406 -0.25 1.574219 -0.875 1.574219 -1.609375 L 1.574219 -6.742188 L 2.828125 -4.910156 L 3.691406 -3.644531 L 6.484375 0 L 6.835938 -0.0820312 C 7.546875 -0.25 8.054688 -0.875 8.054688 -1.609375 Z M 8.054688 -9.464844" transform="translate(21.019 21.578)"/></g></g></g><g><g><g><path d="M 8.054688 -6.328125 C 8.054688 -8.054688 6.660156 -9.464844 4.921875 -9.464844 L 0 -9.464844 L 0.0820312 -9.097656 C 0.25 -8.386719 0.875 -7.878906 1.609375 -7.878906 L 4.496094 -7.878906 C 5.59375 -7.878906 6.484375 -6.992188 6.484375 -5.902344 L 6.484375 -3.550781 C 6.484375 -2.460938 5.59375 -1.574219 4.496094 -1.574219 L 2.246094 -1.574219 C 1.871094 -1.574219 1.574219 -1.871094 1.574219 -2.246094 L 1.574219 -6.519531 C 1.574219 -7.25 1.066406 -7.878906 0.355469 -8.042969 L 0 -8.128906 L 0 0 L 4.921875 0 C 6.660156 0 8.054688 -1.394531 8.054688 -3.125 Z M 8.054688 -6.328125" transform="translate(29.776 21.578)"/></g></g></g><g><g><g><path d="M 7.832031 -0.0703125 L 7.15625 -1.726562 L 4.742188 -7.546875 L 4.828125 -7.738281 L 5.511719 -9.382812 L 5.144531 -9.441406 C 4.695312 -9.511719 4.246094 -9.382812 3.914062 -9.097656 C 3.585938 -9.382812 3.136719 -9.511719 2.683594 -9.441406 L 2.320312 -9.382812 L 3.003906 -7.738281 L 3.085938 -7.546875 L 0.675781 -1.714844 L 0 -0.0703125 L 0.355469 -0.0117188 C 1.066406 0.09375 1.75 -0.285156 2.023438 -0.933594 L 2.105469 -1.148438 L 3.914062 -5.523438 L 5.726562 -1.148438 L 5.808594 -0.933594 C 6.082031 -0.285156 6.765625 0.09375 7.476562 -0.0117188 Z M 7.832031 -0.0703125" transform="translate(38.557 21.578)"/></g></g></g><g><g><g><path d="M 8.054688 -6.921875 C 8.054688 -8.316406 6.921875 -9.464844 5.511719 -9.464844 L 0 -9.464844 L 0 0 L 0.402344 -0.0820312 C 1.089844 -0.25 1.574219 -0.863281 1.574219 -1.5625 L 1.574219 -7.878906 L 5.347656 -7.878906 C 5.972656 -7.878906 6.484375 -7.371094 6.484375 -6.753906 L 6.484375 -6.234375 C 6.484375 -5.632812 5.984375 -5.132812 5.382812 -5.132812 L 2.011719 -5.132812 L 2.09375 -4.78125 C 2.246094 -4.128906 2.792969 -3.644531 3.441406 -3.574219 L 5.820312 -0.578125 C 6.269531 -0.0117188 7.0625 0.164062 7.726562 -0.140625 L 8.054688 -0.308594 L 5.464844 -3.5625 L 5.511719 -3.5625 C 6.921875 -3.5625 8.054688 -4.695312 8.054688 -6.105469 Z M 8.054688 -6.921875" transform="translate(46.996 21.578)"/></g></g></g><g><g><g><path d="M 8.054688 -9.464844 L 7.691406 -9.371094 C 6.980469 -9.214844 6.484375 -8.578125 6.484375 -7.84375 L 6.484375 -4.023438 C 6.484375 -2.671875 5.382812 -1.574219 4.023438 -1.574219 C 2.671875 -1.574219 1.574219 -2.671875 1.574219 -4.023438 L 1.574219 -9.464844 L 1.207031 -9.371094 C 0.496094 -9.214844 0 -8.578125 0 -7.84375 L 0 -3.773438 C 0 -1.691406 1.691406 0 3.773438 0 L 4.28125 0 C 6.363281 0 8.054688 -1.691406 8.054688 -3.773438 Z M 8.054688 -9.464844" transform="translate(55.753 21.578)"/></g></g></g><g><g><g><path d="M 8.066406 -9.464844 L 5.691406 -9.464844 C 4.339844 -9.464844 3.242188 -8.363281 3.242188 -7.003906 L 3.242188 0 L 3.609375 -0.0820312 C 4.316406 -0.25 4.816406 -0.898438 4.816406 -1.65625 L 4.816406 -6.695312 C 4.816406 -7.347656 5.347656 -7.878906 5.996094 -7.878906 L 6.449219 -7.878906 C 7.179688 -7.878906 7.820312 -8.386719 7.984375 -9.097656 Z M 3.75 -9.464844 L 1.609375 -9.464844 C 1.550781 -9.464844 1.492188 -9.453125 1.429688 -9.453125 C 0.769531 -9.371094 0.226562 -8.894531 0.0820312 -8.246094 L 0 -7.878906 L 2.140625 -7.878906 C 2.199219 -7.878906 2.257812 -7.878906 2.320312 -7.890625 C 2.96875 -7.960938 3.511719 -8.445312 3.667969 -9.097656 Z M 3.75 -9.464844" transform="translate(68.057 21.578)"/></g></g></g><g><g><g><path d="M 5.820312 -5.511719 L 1.574219 -5.511719 L 1.574219 -9.464844 L 1.207031 -9.371094 C 0.496094 -9.214844 0 -8.578125 0 -7.84375 L 0 0 L 0.355469 -0.0820312 C 1.066406 -0.25 1.574219 -0.875 1.574219 -1.609375 L 1.574219 -3.9375 L 4.210938 -3.9375 C 4.945312 -3.9375 5.570312 -4.449219 5.738281 -5.15625 Z M 7.785156 -9.464844 L 7.417969 -9.371094 C 6.707031 -9.214844 6.210938 -8.578125 6.210938 -7.84375 L 6.210938 0 L 6.566406 -0.0820312 C 7.277344 -0.25 7.785156 -0.875 7.785156 -1.609375 Z M 7.785156 -9.464844" transform="translate(76.814 21.578)"/></g></g></g><g><g><g><path d="M 7.832031 -0.0703125 L 7.15625 -1.726562 L 4.742188 -7.546875 L 4.828125 -7.738281 L 5.511719 -9.382812 L 5.144531 -9.441406 C 4.695312 -9.511719 4.246094 -9.382812 3.914062 -9.097656 C 3.585938 -9.382812 3.136719 -9.511719 2.683594 -9.441406 L 2.320312 -9.382812 L 3.003906 -7.738281 L 3.085938 -7.546875 L 0.675781 -1.714844 L 0 -0.0703125 L 0.355469 -0.0117188 C 1.066406 0.09375 1.75 -0.285156 2.023438 -0.933594 L 2.105469 -1.148438 L 3.914062 -5.523438 L 5.726562 -1.148438 L 5.808594 -0.933594 C 6.082031 -0.285156 6.765625 0.09375 7.476562 -0.0117188 Z M 7.832031 -0.0703125" transform="translate(85.383 21.578)"/></g></g></g><g><g><g><path d="M 8.054688 -6.921875 C 8.054688 -8.316406 6.921875 -9.464844 5.511719 -9.464844 L 0 -9.464844 L 0 0 L 0.402344 -0.0820312 C 1.089844 -0.25 1.574219 -0.863281 1.574219 -1.5625 L 1.574219 -7.878906 L 5.347656 -7.878906 C 5.972656 -7.878906 6.484375 -7.371094 6.484375 -6.753906 L 6.484375 -6.234375 C 6.484375 -5.632812 5.984375 -5.132812 5.382812 -5.132812 L 2.011719 -5.132812 L 2.09375 -4.78125 C 2.246094 -4.128906 2.792969 -3.644531 3.441406 -3.574219 L 5.820312 -0.578125 C 6.269531 -0.0117188 7.0625 0.164062 7.726562 -0.140625 L 8.054688 -0.308594 L 5.464844 -3.5625 L 5.511719 -3.5625 C 6.921875 -3.5625 8.054688 -4.695312 8.054688 -6.105469 Z M 8.054688 -6.921875" transform="translate(93.821 21.578)"/></g></g></g><g><g><g><path d="M 8.054688 -9.464844 L 7.691406 -9.371094 C 6.980469 -9.214844 6.484375 -8.578125 6.484375 -7.84375 L 6.484375 -4.023438 C 6.484375 -2.671875 5.382812 -1.574219 4.023438 -1.574219 C 2.671875 -1.574219 1.574219 -2.671875 1.574219 -4.023438 L 1.574219 -9.464844 L 1.207031 -9.371094 C 0.496094 -9.214844 0 -8.578125 0 -7.84375 L 0 -3.773438 C 0 -1.691406 1.691406 0 3.773438 0 L 4.28125 0 C 6.363281 0 8.054688 -1.691406 8.054688 -3.773438 Z M 8.054688 -9.464844" transform="translate(102.579 21.578)"/></g></g></g><g><g><g><path d="M 8.054688 -9.464844 L 7.691406 -9.371094 C 6.980469 -9.214844 6.484375 -8.578125 6.484375 -7.84375 L 6.484375 -2.355469 C 6.421875 -2.4375 6.375 -2.519531 6.328125 -2.601562 L 4.992188 -4.542969 L 4.128906 -5.808594 L 1.574219 -9.464844 L 1.207031 -9.371094 C 0.496094 -9.214844 0 -8.578125 0 -7.84375 L 0 0 L 0.355469 -0.0820312 C 1.066406 -0.25 1.574219 -0.875 1.574219 -1.609375 L 1.574219 -6.742188 L 2.828125 -4.910156 L 3.691406 -3.644531 L 6.484375 0 L 6.835938 -0.0820312 C 7.546875 -0.25 8.054688 -0.875 8.054688 -1.609375 Z M 8.054688 -9.464844" transform="translate(111.336 21.578)"/></g></g></g><g><g><g><path d="M 8.066406 0.0117188 L 7.972656 -0.355469 C 7.820312 -1.066406 7.179688 -1.5625 6.449219 -1.5625 L 2.957031 -1.5625 C 2.1875 -1.5625 1.574219 -2.1875 1.574219 -2.945312 L 1.574219 -3.113281 C 1.574219 -3.84375 1.066406 -4.472656 0.355469 -4.636719 L 0 -4.71875 L 0 -2.875 C 0 -1.277344 1.289062 0.0117188 2.886719 0.0117188 Z M 8.066406 -9.464844 L 2.757812 -9.464844 C 1.230469 -9.464844 0 -8.222656 0 -6.695312 C 0 -5.167969 1.230469 -3.925781 2.757812 -3.9375 L 4.695312 -3.9375 C 5.429688 -3.9375 6.058594 -4.4375 6.222656 -5.144531 L 6.304688 -5.511719 L 2.757812 -5.511719 C 2.105469 -5.511719 1.574219 -6.046875 1.574219 -6.695312 C 1.574219 -7.347656 2.105469 -7.878906 2.757812 -7.878906 L 6.449219 -7.878906 C 7.179688 -7.878906 7.820312 -8.386719 7.984375 -9.097656 Z M 8.066406 -9.464844" transform="translate(120.094 21.578)"/></g></g></g><g><g><g><path d="M 8.066406 -9.464844 L 5.691406 -9.464844 C 4.339844 -9.464844 3.242188 -8.363281 3.242188 -7.003906 L 3.242188 0 L 3.609375 -0.0820312 C 4.316406 -0.25 4.816406 -0.898438 4.816406 -1.65625 L 4.816406 -6.695312 C 4.816406 -7.347656 5.347656 -7.878906 5.996094 -7.878906 L 6.449219 -7.878906 C 7.179688 -7.878906 7.820312 -8.386719 7.984375 -9.097656 Z M 3.75 -9.464844 L 1.609375 -9.464844 C 1.550781 -9.464844 1.492188 -9.453125 1.429688 -9.453125 C 0.769531 -9.371094 0.226562 -8.894531 0.0820312 -8.246094 L 0 -7.878906 L 2.140625 -7.878906 C 2.199219 -7.878906 2.257812 -7.878906 2.320312 -7.890625 C 2.96875 -7.960938 3.511719 -8.445312 3.667969 -9.097656 Z M 3.75 -9.464844" transform="translate(128.851 21.578)"/></g></g></g><g><g><g><path d="M 5.820312 -5.511719 L 1.574219 -5.511719 L 1.574219 -9.464844 L 1.207031 -9.371094 C 0.496094 -9.214844 0 -8.578125 0 -7.84375 L 0 0 L 0.355469 -0.0820312 C 1.066406 -0.25 1.574219 -0.875 1.574219 -1.609375 L 1.574219 -3.9375 L 4.210938 -3.9375 C 4.945312 -3.9375 5.570312 -4.449219 5.738281 -5.15625 Z M 7.785156 -9.464844 L 7.417969 -9.371094 C 6.707031 -9.214844 6.210938 -8.578125 6.210938 -7.84375 L 6.210938 0 L 6.566406 -0.0820312 C 7.277344 -0.25 7.785156 -0.875 7.785156 -1.609375 Z M 7.785156 -9.464844" transform="translate(137.609 21.578)"/></g></g></g></svg>