<svg xmlns="http://www.w3.org/2000/svg" width="112.5" viewBox="0 0 112.5 37.5" height="37.5" version="1.0"><g fill="#FF1616" fill-opacity=".302"><g><g><path d="M 3.074219 -6.152344 C 2.347656 -6.152344 1.753906 -6.746094 1.753906 -7.472656 C 1.753906 -8.195312 2.347656 -8.792969 3.074219 -8.792969 L 7.195312 -8.792969 C 8 -8.792969 8.710938 -9.359375 8.898438 -10.152344 L 8.988281 -10.558594 L 3.074219 -10.558594 C 1.371094 -10.558594 0 -9.175781 0 -7.472656 C 0 -5.769531 1.371094 -4.394531 3.074219 -4.394531 L 5.914062 -4.394531 C 6.640625 -4.394531 7.234375 -3.800781 7.234375 -3.074219 C 7.234375 -2.347656 6.640625 -1.753906 5.914062 -1.753906 L 0 -1.753906 L 0.09375 -1.347656 C 0.277344 -0.554688 0.976562 0 1.796875 0 L 5.914062 0 C 7.617188 0 8.988281 -1.371094 8.988281 -3.074219 C 8.988281 -4.777344 7.617188 -6.152344 5.914062 -6.152344 Z M 3.074219 -6.152344" transform="translate(20.775 14.035)"/></g></g></g><g fill="#FF1616" fill-opacity=".302"><g><g><path d="M 8.738281 -0.078125 L 7.984375 -1.925781 L 5.292969 -8.421875 L 5.386719 -8.632812 L 6.152344 -10.46875 L 5.742188 -10.535156 C 5.242188 -10.613281 4.738281 -10.46875 4.371094 -10.152344 C 4 -10.46875 3.496094 -10.613281 2.996094 -10.535156 L 2.585938 -10.46875 L 3.351562 -8.632812 L 3.445312 -8.421875 L 0.753906 -1.914062 L 0 -0.078125 L 0.394531 -0.0117188 C 1.1875 0.105469 1.953125 -0.316406 2.257812 -1.042969 L 2.347656 -1.28125 L 4.371094 -6.164062 L 6.390625 -1.28125 L 6.480469 -1.042969 C 6.785156 -0.316406 7.550781 0.105469 8.34375 -0.0117188 Z M 8.738281 -0.078125" transform="translate(30.55 14.035)"/></g></g></g><g fill="#FF1616" fill-opacity=".302"><g><g><path d="M 8.988281 -10.558594 L 8.578125 -10.453125 C 7.789062 -10.28125 7.234375 -9.570312 7.234375 -8.75 L 7.234375 -2.625 C 7.167969 -2.71875 7.113281 -2.8125 7.0625 -2.902344 L 5.570312 -5.070312 L 4.605469 -6.480469 L 1.753906 -10.558594 L 1.347656 -10.453125 C 0.554688 -10.28125 0 -9.570312 0 -8.75 L 0 0 L 0.394531 -0.09375 C 1.1875 -0.277344 1.753906 -0.976562 1.753906 -1.796875 L 1.753906 -7.523438 L 3.15625 -5.476562 L 4.117188 -4.066406 L 7.234375 0 L 7.628906 -0.09375 C 8.421875 -0.277344 8.988281 -0.976562 8.988281 -1.796875 Z M 8.988281 -10.558594" transform="translate(39.97 14.035)"/></g></g></g><g fill="#FF1616" fill-opacity=".302"><g><g><path d="M 8.988281 -7.0625 C 8.988281 -8.988281 7.429688 -10.558594 5.492188 -10.558594 L 0 -10.558594 L 0.09375 -10.152344 C 0.277344 -9.359375 0.976562 -8.792969 1.796875 -8.792969 L 5.015625 -8.792969 C 6.242188 -8.792969 7.234375 -7.800781 7.234375 -6.585938 L 7.234375 -3.960938 C 7.234375 -2.746094 6.242188 -1.753906 5.015625 -1.753906 L 2.507812 -1.753906 C 2.085938 -1.753906 1.753906 -2.085938 1.753906 -2.507812 L 1.753906 -7.273438 C 1.753906 -8.089844 1.1875 -8.792969 0.394531 -8.976562 L 0 -9.070312 L 0 0 L 5.492188 0 C 7.429688 0 8.988281 -1.558594 8.988281 -3.484375 Z M 8.988281 -7.0625" transform="translate(49.745 14.035)"/></g></g></g><g fill="#FF1616" fill-opacity=".302"><g><g><path d="M 8.738281 -0.078125 L 7.984375 -1.925781 L 5.292969 -8.421875 L 5.386719 -8.632812 L 6.152344 -10.46875 L 5.742188 -10.535156 C 5.242188 -10.613281 4.738281 -10.46875 4.371094 -10.152344 C 4 -10.46875 3.496094 -10.613281 2.996094 -10.535156 L 2.585938 -10.46875 L 3.351562 -8.632812 L 3.445312 -8.421875 L 0.753906 -1.914062 L 0 -0.078125 L 0.394531 -0.0117188 C 1.1875 0.105469 1.953125 -0.316406 2.257812 -1.042969 L 2.347656 -1.28125 L 4.371094 -6.164062 L 6.390625 -1.28125 L 6.480469 -1.042969 C 6.785156 -0.316406 7.550781 0.105469 8.34375 -0.0117188 Z M 8.738281 -0.078125" transform="translate(59.547 14.035)"/></g></g></g><g fill="#FF1616" fill-opacity=".302"><g><g><path d="M 8.988281 -7.722656 C 8.988281 -9.28125 7.722656 -10.558594 6.152344 -10.558594 L 0 -10.558594 L 0 0 L 0.449219 -0.09375 C 1.214844 -0.277344 1.753906 -0.964844 1.753906 -1.742188 L 1.753906 -8.792969 L 5.964844 -8.792969 C 6.664062 -8.792969 7.234375 -8.222656 7.234375 -7.539062 L 7.234375 -6.957031 C 7.234375 -6.28125 6.679688 -5.730469 6.007812 -5.730469 L 2.242188 -5.730469 L 2.335938 -5.332031 C 2.507812 -4.605469 3.113281 -4.066406 3.839844 -3.988281 L 6.496094 -0.648438 C 6.996094 -0.0117188 7.878906 0.183594 8.621094 -0.160156 L 8.988281 -0.34375 L 6.097656 -3.972656 L 6.152344 -3.972656 C 7.722656 -3.972656 8.988281 -5.242188 8.988281 -6.8125 Z M 8.988281 -7.722656" transform="translate(68.966 14.035)"/></g></g></g><g fill="#FF1616" fill-opacity=".302"><g><g><path d="M 8.988281 -10.558594 L 8.578125 -10.453125 C 7.789062 -10.28125 7.234375 -9.570312 7.234375 -8.75 L 7.234375 -4.488281 C 7.234375 -2.984375 6.007812 -1.753906 4.488281 -1.753906 C 2.984375 -1.753906 1.753906 -2.984375 1.753906 -4.488281 L 1.753906 -10.558594 L 1.347656 -10.453125 C 0.554688 -10.28125 0 -9.570312 0 -8.75 L 0 -4.210938 C 0 -1.886719 1.886719 0 4.210938 0 L 4.777344 0 C 7.101562 0 8.988281 -1.886719 8.988281 -4.210938 Z M 8.988281 -10.558594" transform="translate(78.742 14.035)"/></g></g></g><g fill="#FF1616" fill-opacity=".502"><g><g><path d="M 3.074219 -6.152344 C 2.347656 -6.152344 1.753906 -6.746094 1.753906 -7.472656 C 1.753906 -8.195312 2.347656 -8.792969 3.074219 -8.792969 L 7.195312 -8.792969 C 8 -8.792969 8.710938 -9.359375 8.898438 -10.152344 L 8.988281 -10.558594 L 3.074219 -10.558594 C 1.371094 -10.558594 0 -9.175781 0 -7.472656 C 0 -5.769531 1.371094 -4.394531 3.074219 -4.394531 L 5.914062 -4.394531 C 6.640625 -4.394531 7.234375 -3.800781 7.234375 -3.074219 C 7.234375 -2.347656 6.640625 -1.753906 5.914062 -1.753906 L 0 -1.753906 L 0.09375 -1.347656 C 0.277344 -0.554688 0.976562 0 1.796875 0 L 5.914062 0 C 7.617188 0 8.988281 -1.371094 8.988281 -3.074219 C 8.988281 -4.777344 7.617188 -6.152344 5.914062 -6.152344 Z M 3.074219 -6.152344" transform="translate(20.586 12.845)"/></g></g></g><g fill="#FF1616" fill-opacity=".502"><g><g><path d="M 8.738281 -0.078125 L 7.984375 -1.925781 L 5.292969 -8.421875 L 5.386719 -8.632812 L 6.152344 -10.46875 L 5.742188 -10.535156 C 5.242188 -10.613281 4.738281 -10.46875 4.371094 -10.152344 C 4 -10.46875 3.496094 -10.613281 2.996094 -10.535156 L 2.585938 -10.46875 L 3.351562 -8.632812 L 3.445312 -8.421875 L 0.753906 -1.914062 L 0 -0.078125 L 0.394531 -0.0117188 C 1.1875 0.105469 1.953125 -0.316406 2.257812 -1.042969 L 2.347656 -1.28125 L 4.371094 -6.164062 L 6.390625 -1.28125 L 6.480469 -1.042969 C 6.785156 -0.316406 7.550781 0.105469 8.34375 -0.0117188 Z M 8.738281 -0.078125" transform="translate(30.362 12.845)"/></g></g></g><g fill="#FF1616" fill-opacity=".502"><g><g><path d="M 8.988281 -10.558594 L 8.578125 -10.453125 C 7.789062 -10.28125 7.234375 -9.570312 7.234375 -8.75 L 7.234375 -2.625 C 7.167969 -2.71875 7.113281 -2.8125 7.0625 -2.902344 L 5.570312 -5.070312 L 4.605469 -6.480469 L 1.753906 -10.558594 L 1.347656 -10.453125 C 0.554688 -10.28125 0 -9.570312 0 -8.75 L 0 0 L 0.394531 -0.09375 C 1.1875 -0.277344 1.753906 -0.976562 1.753906 -1.796875 L 1.753906 -7.523438 L 3.15625 -5.476562 L 4.117188 -4.066406 L 7.234375 0 L 7.628906 -0.09375 C 8.421875 -0.277344 8.988281 -0.976562 8.988281 -1.796875 Z M 8.988281 -10.558594" transform="translate(39.781 12.845)"/></g></g></g><g fill="#FF1616" fill-opacity=".502"><g><g><path d="M 8.988281 -7.0625 C 8.988281 -8.988281 7.429688 -10.558594 5.492188 -10.558594 L 0 -10.558594 L 0.09375 -10.152344 C 0.277344 -9.359375 0.976562 -8.792969 1.796875 -8.792969 L 5.015625 -8.792969 C 6.242188 -8.792969 7.234375 -7.800781 7.234375 -6.585938 L 7.234375 -3.960938 C 7.234375 -2.746094 6.242188 -1.753906 5.015625 -1.753906 L 2.507812 -1.753906 C 2.085938 -1.753906 1.753906 -2.085938 1.753906 -2.507812 L 1.753906 -7.273438 C 1.753906 -8.089844 1.1875 -8.792969 0.394531 -8.976562 L 0 -9.070312 L 0 0 L 5.492188 0 C 7.429688 0 8.988281 -1.558594 8.988281 -3.484375 Z M 8.988281 -7.0625" transform="translate(49.557 12.845)"/></g></g></g><g fill="#FF1616" fill-opacity=".502"><g><g><path d="M 8.738281 -0.078125 L 7.984375 -1.925781 L 5.292969 -8.421875 L 5.386719 -8.632812 L 6.152344 -10.46875 L 5.742188 -10.535156 C 5.242188 -10.613281 4.738281 -10.46875 4.371094 -10.152344 C 4 -10.46875 3.496094 -10.613281 2.996094 -10.535156 L 2.585938 -10.46875 L 3.351562 -8.632812 L 3.445312 -8.421875 L 0.753906 -1.914062 L 0 -0.078125 L 0.394531 -0.0117188 C 1.1875 0.105469 1.953125 -0.316406 2.257812 -1.042969 L 2.347656 -1.28125 L 4.371094 -6.164062 L 6.390625 -1.28125 L 6.480469 -1.042969 C 6.785156 -0.316406 7.550781 0.105469 8.34375 -0.0117188 Z M 8.738281 -0.078125" transform="translate(59.359 12.845)"/></g></g></g><g fill="#FF1616" fill-opacity=".502"><g><g><path d="M 8.988281 -7.722656 C 8.988281 -9.28125 7.722656 -10.558594 6.152344 -10.558594 L 0 -10.558594 L 0 0 L 0.449219 -0.09375 C 1.214844 -0.277344 1.753906 -0.964844 1.753906 -1.742188 L 1.753906 -8.792969 L 5.964844 -8.792969 C 6.664062 -8.792969 7.234375 -8.222656 7.234375 -7.539062 L 7.234375 -6.957031 C 7.234375 -6.28125 6.679688 -5.730469 6.007812 -5.730469 L 2.242188 -5.730469 L 2.335938 -5.332031 C 2.507812 -4.605469 3.113281 -4.066406 3.839844 -3.988281 L 6.496094 -0.648438 C 6.996094 -0.0117188 7.878906 0.183594 8.621094 -0.160156 L 8.988281 -0.34375 L 6.097656 -3.972656 L 6.152344 -3.972656 C 7.722656 -3.972656 8.988281 -5.242188 8.988281 -6.8125 Z M 8.988281 -7.722656" transform="translate(68.778 12.845)"/></g></g></g><g fill="#FF1616" fill-opacity=".502"><g><g><path d="M 8.988281 -10.558594 L 8.578125 -10.453125 C 7.789062 -10.28125 7.234375 -9.570312 7.234375 -8.75 L 7.234375 -4.488281 C 7.234375 -2.984375 6.007812 -1.753906 4.488281 -1.753906 C 2.984375 -1.753906 1.753906 -2.984375 1.753906 -4.488281 L 1.753906 -10.558594 L 1.347656 -10.453125 C 0.554688 -10.28125 0 -9.570312 0 -8.75 L 0 -4.210938 C 0 -1.886719 1.886719 0 4.210938 0 L 4.777344 0 C 7.101562 0 8.988281 -1.886719 8.988281 -4.210938 Z M 8.988281 -10.558594" transform="translate(78.554 12.845)"/></g></g></g><g><g><g><path d="M 3.074219 -6.152344 C 2.347656 -6.152344 1.753906 -6.746094 1.753906 -7.472656 C 1.753906 -8.195312 2.347656 -8.792969 3.074219 -8.792969 L 7.195312 -8.792969 C 8 -8.792969 8.710938 -9.359375 8.898438 -10.152344 L 8.988281 -10.558594 L 3.074219 -10.558594 C 1.371094 -10.558594 0 -9.175781 0 -7.472656 C 0 -5.769531 1.371094 -4.394531 3.074219 -4.394531 L 5.914062 -4.394531 C 6.640625 -4.394531 7.234375 -3.800781 7.234375 -3.074219 C 7.234375 -2.347656 6.640625 -1.753906 5.914062 -1.753906 L 0 -1.753906 L 0.09375 -1.347656 C 0.277344 -0.554688 0.976562 0 1.796875 0 L 5.914062 0 C 7.617188 0 8.988281 -1.371094 8.988281 -3.074219 C 8.988281 -4.777344 7.617188 -6.152344 5.914062 -6.152344 Z M 3.074219 -6.152344" transform="translate(20.398 11.655)"/></g></g></g><g><g><g><path d="M 8.738281 -0.078125 L 7.984375 -1.925781 L 5.292969 -8.421875 L 5.386719 -8.632812 L 6.152344 -10.46875 L 5.742188 -10.535156 C 5.242188 -10.613281 4.738281 -10.46875 4.371094 -10.152344 C 4 -10.46875 3.496094 -10.613281 2.996094 -10.535156 L 2.585938 -10.46875 L 3.351562 -8.632812 L 3.445312 -8.421875 L 0.753906 -1.914062 L 0 -0.078125 L 0.394531 -0.0117188 C 1.1875 0.105469 1.953125 -0.316406 2.257812 -1.042969 L 2.347656 -1.28125 L 4.371094 -6.164062 L 6.390625 -1.28125 L 6.480469 -1.042969 C 6.785156 -0.316406 7.550781 0.105469 8.34375 -0.0117188 Z M 8.738281 -0.078125" transform="translate(30.173 11.655)"/></g></g></g><g><g><g><path d="M 8.988281 -10.558594 L 8.578125 -10.453125 C 7.789062 -10.28125 7.234375 -9.570312 7.234375 -8.75 L 7.234375 -2.625 C 7.167969 -2.71875 7.113281 -2.8125 7.0625 -2.902344 L 5.570312 -5.070312 L 4.605469 -6.480469 L 1.753906 -10.558594 L 1.347656 -10.453125 C 0.554688 -10.28125 0 -9.570312 0 -8.75 L 0 0 L 0.394531 -0.09375 C 1.1875 -0.277344 1.753906 -0.976562 1.753906 -1.796875 L 1.753906 -7.523438 L 3.15625 -5.476562 L 4.117188 -4.066406 L 7.234375 0 L 7.628906 -0.09375 C 8.421875 -0.277344 8.988281 -0.976562 8.988281 -1.796875 Z M 8.988281 -10.558594" transform="translate(39.593 11.655)"/></g></g></g><g><g><g><path d="M 8.988281 -7.0625 C 8.988281 -8.988281 7.429688 -10.558594 5.492188 -10.558594 L 0 -10.558594 L 0.09375 -10.152344 C 0.277344 -9.359375 0.976562 -8.792969 1.796875 -8.792969 L 5.015625 -8.792969 C 6.242188 -8.792969 7.234375 -7.800781 7.234375 -6.585938 L 7.234375 -3.960938 C 7.234375 -2.746094 6.242188 -1.753906 5.015625 -1.753906 L 2.507812 -1.753906 C 2.085938 -1.753906 1.753906 -2.085938 1.753906 -2.507812 L 1.753906 -7.273438 C 1.753906 -8.089844 1.1875 -8.792969 0.394531 -8.976562 L 0 -9.070312 L 0 0 L 5.492188 0 C 7.429688 0 8.988281 -1.558594 8.988281 -3.484375 Z M 8.988281 -7.0625" transform="translate(49.368 11.655)"/></g></g></g><g><g><g><path d="M 8.738281 -0.078125 L 7.984375 -1.925781 L 5.292969 -8.421875 L 5.386719 -8.632812 L 6.152344 -10.46875 L 5.742188 -10.535156 C 5.242188 -10.613281 4.738281 -10.46875 4.371094 -10.152344 C 4 -10.46875 3.496094 -10.613281 2.996094 -10.535156 L 2.585938 -10.46875 L 3.351562 -8.632812 L 3.445312 -8.421875 L 0.753906 -1.914062 L 0 -0.078125 L 0.394531 -0.0117188 C 1.1875 0.105469 1.953125 -0.316406 2.257812 -1.042969 L 2.347656 -1.28125 L 4.371094 -6.164062 L 6.390625 -1.28125 L 6.480469 -1.042969 C 6.785156 -0.316406 7.550781 0.105469 8.34375 -0.0117188 Z M 8.738281 -0.078125" transform="translate(59.17 11.655)"/></g></g></g><g><g><g><path d="M 8.988281 -7.722656 C 8.988281 -9.28125 7.722656 -10.558594 6.152344 -10.558594 L 0 -10.558594 L 0 0 L 0.449219 -0.09375 C 1.214844 -0.277344 1.753906 -0.964844 1.753906 -1.742188 L 1.753906 -8.792969 L 5.964844 -8.792969 C 6.664062 -8.792969 7.234375 -8.222656 7.234375 -7.539062 L 7.234375 -6.957031 C 7.234375 -6.28125 6.679688 -5.730469 6.007812 -5.730469 L 2.242188 -5.730469 L 2.335938 -5.332031 C 2.507812 -4.605469 3.113281 -4.066406 3.839844 -3.988281 L 6.496094 -0.648438 C 6.996094 -0.0117188 7.878906 0.183594 8.621094 -0.160156 L 8.988281 -0.34375 L 6.097656 -3.972656 L 6.152344 -3.972656 C 7.722656 -3.972656 8.988281 -5.242188 8.988281 -6.8125 Z M 8.988281 -7.722656" transform="translate(68.59 11.655)"/></g></g></g><g><g><g><path d="M 8.988281 -10.558594 L 8.578125 -10.453125 C 7.789062 -10.28125 7.234375 -9.570312 7.234375 -8.75 L 7.234375 -4.488281 C 7.234375 -2.984375 6.007812 -1.753906 4.488281 -1.753906 C 2.984375 -1.753906 1.753906 -2.984375 1.753906 -4.488281 L 1.753906 -10.558594 L 1.347656 -10.453125 C 0.554688 -10.28125 0 -9.570312 0 -8.75 L 0 -4.210938 C 0 -1.886719 1.886719 0 4.210938 0 L 4.777344 0 C 7.101562 0 8.988281 -1.886719 8.988281 -4.210938 Z M 8.988281 -10.558594" transform="translate(78.365 11.655)"/></g></g></g><g fill="#FF1616" fill-opacity=".302"><g><g><path d="M 9.003906 -10.558594 L 6.347656 -10.558594 C 4.84375 -10.558594 3.617188 -9.332031 3.617188 -7.8125 L 3.617188 0 L 4.027344 -0.09375 C 4.816406 -0.277344 5.371094 -1.003906 5.371094 -1.847656 L 5.371094 -7.472656 C 5.371094 -8.195312 5.964844 -8.792969 6.691406 -8.792969 L 7.195312 -8.792969 C 8.011719 -8.792969 8.726562 -9.359375 8.910156 -10.152344 Z M 4.183594 -10.558594 L 1.796875 -10.558594 C 1.730469 -10.558594 1.664062 -10.546875 1.597656 -10.546875 C 0.859375 -10.453125 0.25 -9.925781 0.09375 -9.199219 L 0 -8.792969 L 2.390625 -8.792969 C 2.457031 -8.792969 2.519531 -8.792969 2.585938 -8.804688 C 3.3125 -8.882812 3.921875 -9.425781 4.09375 -10.152344 Z M 4.183594 -10.558594" transform="translate(13.024 35.143)"/></g></g></g><g fill="#FF1616" fill-opacity=".302"><g><g><path d="M 6.496094 -6.152344 L 1.753906 -6.152344 L 1.753906 -10.558594 L 1.347656 -10.453125 C 0.554688 -10.28125 0 -9.570312 0 -8.75 L 0 0 L 0.394531 -0.09375 C 1.1875 -0.277344 1.753906 -0.976562 1.753906 -1.796875 L 1.753906 -4.394531 L 4.699219 -4.394531 C 5.519531 -4.394531 6.21875 -4.964844 6.402344 -5.753906 Z M 8.6875 -10.558594 L 8.277344 -10.453125 C 7.484375 -10.28125 6.929688 -9.570312 6.929688 -8.75 L 6.929688 0 L 7.324219 -0.09375 C 8.117188 -0.277344 8.6875 -0.976562 8.6875 -1.796875 Z M 8.6875 -10.558594" transform="translate(22.8 35.143)"/></g></g></g><g fill="#FF1616" fill-opacity=".302"><g><g><path d="M 8.738281 -0.078125 L 7.984375 -1.925781 L 5.292969 -8.421875 L 5.386719 -8.632812 L 6.152344 -10.46875 L 5.742188 -10.535156 C 5.242188 -10.613281 4.738281 -10.46875 4.371094 -10.152344 C 4 -10.46875 3.496094 -10.613281 2.996094 -10.535156 L 2.585938 -10.46875 L 3.351562 -8.632812 L 3.445312 -8.421875 L 0.753906 -1.914062 L 0 -0.078125 L 0.394531 -0.0117188 C 1.1875 0.105469 1.953125 -0.316406 2.257812 -1.042969 L 2.347656 -1.28125 L 4.371094 -6.164062 L 6.390625 -1.28125 L 6.480469 -1.042969 C 6.785156 -0.316406 7.550781 0.105469 8.34375 -0.0117188 Z M 8.738281 -0.078125" transform="translate(32.364 35.143)"/></g></g></g><g fill="#FF1616" fill-opacity=".302"><g><g><path d="M 8.988281 -7.722656 C 8.988281 -9.28125 7.722656 -10.558594 6.152344 -10.558594 L 0 -10.558594 L 0 0 L 0.449219 -0.09375 C 1.214844 -0.277344 1.753906 -0.964844 1.753906 -1.742188 L 1.753906 -8.792969 L 5.964844 -8.792969 C 6.664062 -8.792969 7.234375 -8.222656 7.234375 -7.539062 L 7.234375 -6.957031 C 7.234375 -6.28125 6.679688 -5.730469 6.007812 -5.730469 L 2.242188 -5.730469 L 2.335938 -5.332031 C 2.507812 -4.605469 3.113281 -4.066406 3.839844 -3.988281 L 6.496094 -0.648438 C 6.996094 -0.0117188 7.878906 0.183594 8.621094 -0.160156 L 8.988281 -0.34375 L 6.097656 -3.972656 L 6.152344 -3.972656 C 7.722656 -3.972656 8.988281 -5.242188 8.988281 -6.8125 Z M 8.988281 -7.722656" transform="translate(41.784 35.143)"/></g></g></g><g fill="#FF1616" fill-opacity=".302"><g><g><path d="M 8.988281 -10.558594 L 8.578125 -10.453125 C 7.789062 -10.28125 7.234375 -9.570312 7.234375 -8.75 L 7.234375 -4.488281 C 7.234375 -2.984375 6.007812 -1.753906 4.488281 -1.753906 C 2.984375 -1.753906 1.753906 -2.984375 1.753906 -4.488281 L 1.753906 -10.558594 L 1.347656 -10.453125 C 0.554688 -10.28125 0 -9.570312 0 -8.75 L 0 -4.210938 C 0 -1.886719 1.886719 0 4.210938 0 L 4.777344 0 C 7.101562 0 8.988281 -1.886719 8.988281 -4.210938 Z M 8.988281 -10.558594" transform="translate(51.56 35.143)"/></g></g></g><g fill="#FF1616" fill-opacity=".302"><g><g><path d="M 8.988281 -10.558594 L 8.578125 -10.453125 C 7.789062 -10.28125 7.234375 -9.570312 7.234375 -8.75 L 7.234375 -2.625 C 7.167969 -2.71875 7.113281 -2.8125 7.0625 -2.902344 L 5.570312 -5.070312 L 4.605469 -6.480469 L 1.753906 -10.558594 L 1.347656 -10.453125 C 0.554688 -10.28125 0 -9.570312 0 -8.75 L 0 0 L 0.394531 -0.09375 C 1.1875 -0.277344 1.753906 -0.976562 1.753906 -1.796875 L 1.753906 -7.523438 L 3.15625 -5.476562 L 4.117188 -4.066406 L 7.234375 0 L 7.628906 -0.09375 C 8.421875 -0.277344 8.988281 -0.976562 8.988281 -1.796875 Z M 8.988281 -10.558594" transform="translate(61.335 35.143)"/></g></g></g><g fill="#FF1616" fill-opacity=".302"><g><g><path d="M 9.003906 0.0117188 L 8.898438 -0.394531 C 8.726562 -1.1875 8.011719 -1.742188 7.195312 -1.742188 L 3.300781 -1.742188 C 2.441406 -1.742188 1.753906 -2.441406 1.753906 -3.285156 L 1.753906 -3.472656 C 1.753906 -4.289062 1.1875 -4.988281 0.394531 -5.175781 L 0 -5.265625 L 0 -3.207031 C 0 -1.425781 1.4375 0.0117188 3.222656 0.0117188 Z M 9.003906 -10.558594 L 3.074219 -10.558594 C 1.371094 -10.558594 0 -9.175781 0 -7.472656 C 0 -5.769531 1.371094 -4.382812 3.074219 -4.394531 L 5.242188 -4.394531 C 6.058594 -4.394531 6.757812 -4.949219 6.941406 -5.742188 L 7.035156 -6.152344 L 3.074219 -6.152344 C 2.347656 -6.152344 1.753906 -6.746094 1.753906 -7.472656 C 1.753906 -8.195312 2.347656 -8.792969 3.074219 -8.792969 L 7.195312 -8.792969 C 8.011719 -8.792969 8.726562 -9.359375 8.910156 -10.152344 Z M 9.003906 -10.558594" transform="translate(71.11 35.143)"/></g></g></g><g fill="#FF1616" fill-opacity=".302"><g><g><path d="M 9.003906 -10.558594 L 6.347656 -10.558594 C 4.84375 -10.558594 3.617188 -9.332031 3.617188 -7.8125 L 3.617188 0 L 4.027344 -0.09375 C 4.816406 -0.277344 5.371094 -1.003906 5.371094 -1.847656 L 5.371094 -7.472656 C 5.371094 -8.195312 5.964844 -8.792969 6.691406 -8.792969 L 7.195312 -8.792969 C 8.011719 -8.792969 8.726562 -9.359375 8.910156 -10.152344 Z M 4.183594 -10.558594 L 1.796875 -10.558594 C 1.730469 -10.558594 1.664062 -10.546875 1.597656 -10.546875 C 0.859375 -10.453125 0.25 -9.925781 0.09375 -9.199219 L 0 -8.792969 L 2.390625 -8.792969 C 2.457031 -8.792969 2.519531 -8.792969 2.585938 -8.804688 C 3.3125 -8.882812 3.921875 -9.425781 4.09375 -10.152344 Z M 4.183594 -10.558594" transform="translate(80.886 35.143)"/></g></g></g><g fill="#FF1616" fill-opacity=".302"><g><g><path d="M 6.496094 -6.152344 L 1.753906 -6.152344 L 1.753906 -10.558594 L 1.347656 -10.453125 C 0.554688 -10.28125 0 -9.570312 0 -8.75 L 0 0 L 0.394531 -0.09375 C 1.1875 -0.277344 1.753906 -0.976562 1.753906 -1.796875 L 1.753906 -4.394531 L 4.699219 -4.394531 C 5.519531 -4.394531 6.21875 -4.964844 6.402344 -5.753906 Z M 8.6875 -10.558594 L 8.277344 -10.453125 C 7.484375 -10.28125 6.929688 -9.570312 6.929688 -8.75 L 6.929688 0 L 7.324219 -0.09375 C 8.117188 -0.277344 8.6875 -0.976562 8.6875 -1.796875 Z M 8.6875 -10.558594" transform="translate(90.661 35.143)"/></g></g></g><g fill="#FF1616" fill-opacity=".502"><g><g><path d="M 9.003906 -10.558594 L 6.347656 -10.558594 C 4.84375 -10.558594 3.617188 -9.332031 3.617188 -7.8125 L 3.617188 0 L 4.027344 -0.09375 C 4.816406 -0.277344 5.371094 -1.003906 5.371094 -1.847656 L 5.371094 -7.472656 C 5.371094 -8.195312 5.964844 -8.792969 6.691406 -8.792969 L 7.195312 -8.792969 C 8.011719 -8.792969 8.726562 -9.359375 8.910156 -10.152344 Z M 4.183594 -10.558594 L 1.796875 -10.558594 C 1.730469 -10.558594 1.664062 -10.546875 1.597656 -10.546875 C 0.859375 -10.453125 0.25 -9.925781 0.09375 -9.199219 L 0 -8.792969 L 2.390625 -8.792969 C 2.457031 -8.792969 2.519531 -8.792969 2.585938 -8.804688 C 3.3125 -8.882812 3.921875 -9.425781 4.09375 -10.152344 Z M 4.183594 -10.558594" transform="translate(12.836 33.953)"/></g></g></g><g fill="#FF1616" fill-opacity=".502"><g><g><path d="M 6.496094 -6.152344 L 1.753906 -6.152344 L 1.753906 -10.558594 L 1.347656 -10.453125 C 0.554688 -10.28125 0 -9.570312 0 -8.75 L 0 0 L 0.394531 -0.09375 C 1.1875 -0.277344 1.753906 -0.976562 1.753906 -1.796875 L 1.753906 -4.394531 L 4.699219 -4.394531 C 5.519531 -4.394531 6.21875 -4.964844 6.402344 -5.753906 Z M 8.6875 -10.558594 L 8.277344 -10.453125 C 7.484375 -10.28125 6.929688 -9.570312 6.929688 -8.75 L 6.929688 0 L 7.324219 -0.09375 C 8.117188 -0.277344 8.6875 -0.976562 8.6875 -1.796875 Z M 8.6875 -10.558594" transform="translate(22.611 33.953)"/></g></g></g><g fill="#FF1616" fill-opacity=".502"><g><g><path d="M 8.738281 -0.078125 L 7.984375 -1.925781 L 5.292969 -8.421875 L 5.386719 -8.632812 L 6.152344 -10.46875 L 5.742188 -10.535156 C 5.242188 -10.613281 4.738281 -10.46875 4.371094 -10.152344 C 4 -10.46875 3.496094 -10.613281 2.996094 -10.535156 L 2.585938 -10.46875 L 3.351562 -8.632812 L 3.445312 -8.421875 L 0.753906 -1.914062 L 0 -0.078125 L 0.394531 -0.0117188 C 1.1875 0.105469 1.953125 -0.316406 2.257812 -1.042969 L 2.347656 -1.28125 L 4.371094 -6.164062 L 6.390625 -1.28125 L 6.480469 -1.042969 C 6.785156 -0.316406 7.550781 0.105469 8.34375 -0.0117188 Z M 8.738281 -0.078125" transform="translate(32.176 33.953)"/></g></g></g><g fill="#FF1616" fill-opacity=".502"><g><g><path d="M 8.988281 -7.722656 C 8.988281 -9.28125 7.722656 -10.558594 6.152344 -10.558594 L 0 -10.558594 L 0 0 L 0.449219 -0.09375 C 1.214844 -0.277344 1.753906 -0.964844 1.753906 -1.742188 L 1.753906 -8.792969 L 5.964844 -8.792969 C 6.664062 -8.792969 7.234375 -8.222656 7.234375 -7.539062 L 7.234375 -6.957031 C 7.234375 -6.28125 6.679688 -5.730469 6.007812 -5.730469 L 2.242188 -5.730469 L 2.335938 -5.332031 C 2.507812 -4.605469 3.113281 -4.066406 3.839844 -3.988281 L 6.496094 -0.648438 C 6.996094 -0.0117188 7.878906 0.183594 8.621094 -0.160156 L 8.988281 -0.34375 L 6.097656 -3.972656 L 6.152344 -3.972656 C 7.722656 -3.972656 8.988281 -5.242188 8.988281 -6.8125 Z M 8.988281 -7.722656" transform="translate(41.595 33.953)"/></g></g></g><g fill="#FF1616" fill-opacity=".502"><g><g><path d="M 8.988281 -10.558594 L 8.578125 -10.453125 C 7.789062 -10.28125 7.234375 -9.570312 7.234375 -8.75 L 7.234375 -4.488281 C 7.234375 -2.984375 6.007812 -1.753906 4.488281 -1.753906 C 2.984375 -1.753906 1.753906 -2.984375 1.753906 -4.488281 L 1.753906 -10.558594 L 1.347656 -10.453125 C 0.554688 -10.28125 0 -9.570312 0 -8.75 L 0 -4.210938 C 0 -1.886719 1.886719 0 4.210938 0 L 4.777344 0 C 7.101562 0 8.988281 -1.886719 8.988281 -4.210938 Z M 8.988281 -10.558594" transform="translate(51.37 33.953)"/></g></g></g><g fill="#FF1616" fill-opacity=".502"><g><g><path d="M 8.988281 -10.558594 L 8.578125 -10.453125 C 7.789062 -10.28125 7.234375 -9.570312 7.234375 -8.75 L 7.234375 -2.625 C 7.167969 -2.71875 7.113281 -2.8125 7.0625 -2.902344 L 5.570312 -5.070312 L 4.605469 -6.480469 L 1.753906 -10.558594 L 1.347656 -10.453125 C 0.554688 -10.28125 0 -9.570312 0 -8.75 L 0 0 L 0.394531 -0.09375 C 1.1875 -0.277344 1.753906 -0.976562 1.753906 -1.796875 L 1.753906 -7.523438 L 3.15625 -5.476562 L 4.117188 -4.066406 L 7.234375 0 L 7.628906 -0.09375 C 8.421875 -0.277344 8.988281 -0.976562 8.988281 -1.796875 Z M 8.988281 -10.558594" transform="translate(61.146 33.953)"/></g></g></g><g fill="#FF1616" fill-opacity=".502"><g><g><path d="M 9.003906 0.0117188 L 8.898438 -0.394531 C 8.726562 -1.1875 8.011719 -1.742188 7.195312 -1.742188 L 3.300781 -1.742188 C 2.441406 -1.742188 1.753906 -2.441406 1.753906 -3.285156 L 1.753906 -3.472656 C 1.753906 -4.289062 1.1875 -4.988281 0.394531 -5.175781 L 0 -5.265625 L 0 -3.207031 C 0 -1.425781 1.4375 0.0117188 3.222656 0.0117188 Z M 9.003906 -10.558594 L 3.074219 -10.558594 C 1.371094 -10.558594 0 -9.175781 0 -7.472656 C 0 -5.769531 1.371094 -4.382812 3.074219 -4.394531 L 5.242188 -4.394531 C 6.058594 -4.394531 6.757812 -4.949219 6.941406 -5.742188 L 7.035156 -6.152344 L 3.074219 -6.152344 C 2.347656 -6.152344 1.753906 -6.746094 1.753906 -7.472656 C 1.753906 -8.195312 2.347656 -8.792969 3.074219 -8.792969 L 7.195312 -8.792969 C 8.011719 -8.792969 8.726562 -9.359375 8.910156 -10.152344 Z M 9.003906 -10.558594" transform="translate(70.922 33.953)"/></g></g></g><g fill="#FF1616" fill-opacity=".502"><g><g><path d="M 9.003906 -10.558594 L 6.347656 -10.558594 C 4.84375 -10.558594 3.617188 -9.332031 3.617188 -7.8125 L 3.617188 0 L 4.027344 -0.09375 C 4.816406 -0.277344 5.371094 -1.003906 5.371094 -1.847656 L 5.371094 -7.472656 C 5.371094 -8.195312 5.964844 -8.792969 6.691406 -8.792969 L 7.195312 -8.792969 C 8.011719 -8.792969 8.726562 -9.359375 8.910156 -10.152344 Z M 4.183594 -10.558594 L 1.796875 -10.558594 C 1.730469 -10.558594 1.664062 -10.546875 1.597656 -10.546875 C 0.859375 -10.453125 0.25 -9.925781 0.09375 -9.199219 L 0 -8.792969 L 2.390625 -8.792969 C 2.457031 -8.792969 2.519531 -8.792969 2.585938 -8.804688 C 3.3125 -8.882812 3.921875 -9.425781 4.09375 -10.152344 Z M 4.183594 -10.558594" transform="translate(80.697 33.953)"/></g></g></g><g fill="#FF1616" fill-opacity=".502"><g><g><path d="M 6.496094 -6.152344 L 1.753906 -6.152344 L 1.753906 -10.558594 L 1.347656 -10.453125 C 0.554688 -10.28125 0 -9.570312 0 -8.75 L 0 0 L 0.394531 -0.09375 C 1.1875 -0.277344 1.753906 -0.976562 1.753906 -1.796875 L 1.753906 -4.394531 L 4.699219 -4.394531 C 5.519531 -4.394531 6.21875 -4.964844 6.402344 -5.753906 Z M 8.6875 -10.558594 L 8.277344 -10.453125 C 7.484375 -10.28125 6.929688 -9.570312 6.929688 -8.75 L 6.929688 0 L 7.324219 -0.09375 C 8.117188 -0.277344 8.6875 -0.976562 8.6875 -1.796875 Z M 8.6875 -10.558594" transform="translate(90.473 33.953)"/></g></g></g><g><g><g><path d="M 9.003906 -10.558594 L 6.347656 -10.558594 C 4.84375 -10.558594 3.617188 -9.332031 3.617188 -7.8125 L 3.617188 0 L 4.027344 -0.09375 C 4.816406 -0.277344 5.371094 -1.003906 5.371094 -1.847656 L 5.371094 -7.472656 C 5.371094 -8.195312 5.964844 -8.792969 6.691406 -8.792969 L 7.195312 -8.792969 C 8.011719 -8.792969 8.726562 -9.359375 8.910156 -10.152344 Z M 4.183594 -10.558594 L 1.796875 -10.558594 C 1.730469 -10.558594 1.664062 -10.546875 1.597656 -10.546875 C 0.859375 -10.453125 0.25 -9.925781 0.09375 -9.199219 L 0 -8.792969 L 2.390625 -8.792969 C 2.457031 -8.792969 2.519531 -8.792969 2.585938 -8.804688 C 3.3125 -8.882812 3.921875 -9.425781 4.09375 -10.152344 Z M 4.183594 -10.558594" transform="translate(12.647 32.763)"/></g></g></g><g><g><g><path d="M 6.496094 -6.152344 L 1.753906 -6.152344 L 1.753906 -10.558594 L 1.347656 -10.453125 C 0.554688 -10.28125 0 -9.570312 0 -8.75 L 0 0 L 0.394531 -0.09375 C 1.1875 -0.277344 1.753906 -0.976562 1.753906 -1.796875 L 1.753906 -4.394531 L 4.699219 -4.394531 C 5.519531 -4.394531 6.21875 -4.964844 6.402344 -5.753906 Z M 8.6875 -10.558594 L 8.277344 -10.453125 C 7.484375 -10.28125 6.929688 -9.570312 6.929688 -8.75 L 6.929688 0 L 7.324219 -0.09375 C 8.117188 -0.277344 8.6875 -0.976562 8.6875 -1.796875 Z M 8.6875 -10.558594" transform="translate(22.423 32.763)"/></g></g></g><g><g><g><path d="M 8.738281 -0.078125 L 7.984375 -1.925781 L 5.292969 -8.421875 L 5.386719 -8.632812 L 6.152344 -10.46875 L 5.742188 -10.535156 C 5.242188 -10.613281 4.738281 -10.46875 4.371094 -10.152344 C 4 -10.46875 3.496094 -10.613281 2.996094 -10.535156 L 2.585938 -10.46875 L 3.351562 -8.632812 L 3.445312 -8.421875 L 0.753906 -1.914062 L 0 -0.078125 L 0.394531 -0.0117188 C 1.1875 0.105469 1.953125 -0.316406 2.257812 -1.042969 L 2.347656 -1.28125 L 4.371094 -6.164062 L 6.390625 -1.28125 L 6.480469 -1.042969 C 6.785156 -0.316406 7.550781 0.105469 8.34375 -0.0117188 Z M 8.738281 -0.078125" transform="translate(31.987 32.763)"/></g></g></g><g><g><g><path d="M 8.988281 -7.722656 C 8.988281 -9.28125 7.722656 -10.558594 6.152344 -10.558594 L 0 -10.558594 L 0 0 L 0.449219 -0.09375 C 1.214844 -0.277344 1.753906 -0.964844 1.753906 -1.742188 L 1.753906 -8.792969 L 5.964844 -8.792969 C 6.664062 -8.792969 7.234375 -8.222656 7.234375 -7.539062 L 7.234375 -6.957031 C 7.234375 -6.28125 6.679688 -5.730469 6.007812 -5.730469 L 2.242188 -5.730469 L 2.335938 -5.332031 C 2.507812 -4.605469 3.113281 -4.066406 3.839844 -3.988281 L 6.496094 -0.648438 C 6.996094 -0.0117188 7.878906 0.183594 8.621094 -0.160156 L 8.988281 -0.34375 L 6.097656 -3.972656 L 6.152344 -3.972656 C 7.722656 -3.972656 8.988281 -5.242188 8.988281 -6.8125 Z M 8.988281 -7.722656" transform="translate(41.407 32.763)"/></g></g></g><g><g><g><path d="M 8.988281 -10.558594 L 8.578125 -10.453125 C 7.789062 -10.28125 7.234375 -9.570312 7.234375 -8.75 L 7.234375 -4.488281 C 7.234375 -2.984375 6.007812 -1.753906 4.488281 -1.753906 C 2.984375 -1.753906 1.753906 -2.984375 1.753906 -4.488281 L 1.753906 -10.558594 L 1.347656 -10.453125 C 0.554688 -10.28125 0 -9.570312 0 -8.75 L 0 -4.210938 C 0 -1.886719 1.886719 0 4.210938 0 L 4.777344 0 C 7.101562 0 8.988281 -1.886719 8.988281 -4.210938 Z M 8.988281 -10.558594" transform="translate(51.182 32.763)"/></g></g></g><g><g><g><path d="M 8.988281 -10.558594 L 8.578125 -10.453125 C 7.789062 -10.28125 7.234375 -9.570312 7.234375 -8.75 L 7.234375 -2.625 C 7.167969 -2.71875 7.113281 -2.8125 7.0625 -2.902344 L 5.570312 -5.070312 L 4.605469 -6.480469 L 1.753906 -10.558594 L 1.347656 -10.453125 C 0.554688 -10.28125 0 -9.570312 0 -8.75 L 0 0 L 0.394531 -0.09375 C 1.1875 -0.277344 1.753906 -0.976562 1.753906 -1.796875 L 1.753906 -7.523438 L 3.15625 -5.476562 L 4.117188 -4.066406 L 7.234375 0 L 7.628906 -0.09375 C 8.421875 -0.277344 8.988281 -0.976562 8.988281 -1.796875 Z M 8.988281 -10.558594" transform="translate(60.958 32.763)"/></g></g></g><g><g><g><path d="M 9.003906 0.0117188 L 8.898438 -0.394531 C 8.726562 -1.1875 8.011719 -1.742188 7.195312 -1.742188 L 3.300781 -1.742188 C 2.441406 -1.742188 1.753906 -2.441406 1.753906 -3.285156 L 1.753906 -3.472656 C 1.753906 -4.289062 1.1875 -4.988281 0.394531 -5.175781 L 0 -5.265625 L 0 -3.207031 C 0 -1.425781 1.4375 0.0117188 3.222656 0.0117188 Z M 9.003906 -10.558594 L 3.074219 -10.558594 C 1.371094 -10.558594 0 -9.175781 0 -7.472656 C 0 -5.769531 1.371094 -4.382812 3.074219 -4.394531 L 5.242188 -4.394531 C 6.058594 -4.394531 6.757812 -4.949219 6.941406 -5.742188 L 7.035156 -6.152344 L 3.074219 -6.152344 C 2.347656 -6.152344 1.753906 -6.746094 1.753906 -7.472656 C 1.753906 -8.195312 2.347656 -8.792969 3.074219 -8.792969 L 7.195312 -8.792969 C 8.011719 -8.792969 8.726562 -9.359375 8.910156 -10.152344 Z M 9.003906 -10.558594" transform="translate(70.733 32.763)"/></g></g></g><g><g><g><path d="M 9.003906 -10.558594 L 6.347656 -10.558594 C 4.84375 -10.558594 3.617188 -9.332031 3.617188 -7.8125 L 3.617188 0 L 4.027344 -0.09375 C 4.816406 -0.277344 5.371094 -1.003906 5.371094 -1.847656 L 5.371094 -7.472656 C 5.371094 -8.195312 5.964844 -8.792969 6.691406 -8.792969 L 7.195312 -8.792969 C 8.011719 -8.792969 8.726562 -9.359375 8.910156 -10.152344 Z M 4.183594 -10.558594 L 1.796875 -10.558594 C 1.730469 -10.558594 1.664062 -10.546875 1.597656 -10.546875 C 0.859375 -10.453125 0.25 -9.925781 0.09375 -9.199219 L 0 -8.792969 L 2.390625 -8.792969 C 2.457031 -8.792969 2.519531 -8.792969 2.585938 -8.804688 C 3.3125 -8.882812 3.921875 -9.425781 4.09375 -10.152344 Z M 4.183594 -10.558594" transform="translate(80.509 32.763)"/></g></g></g><g><g><g><path d="M 6.496094 -6.152344 L 1.753906 -6.152344 L 1.753906 -10.558594 L 1.347656 -10.453125 C 0.554688 -10.28125 0 -9.570312 0 -8.75 L 0 0 L 0.394531 -0.09375 C 1.1875 -0.277344 1.753906 -0.976562 1.753906 -1.796875 L 1.753906 -4.394531 L 4.699219 -4.394531 C 5.519531 -4.394531 6.21875 -4.964844 6.402344 -5.753906 Z M 8.6875 -10.558594 L 8.277344 -10.453125 C 7.484375 -10.28125 6.929688 -9.570312 6.929688 -8.75 L 6.929688 0 L 7.324219 -0.09375 C 8.117188 -0.277344 8.6875 -0.976562 8.6875 -1.796875 Z M 8.6875 -10.558594" transform="translate(90.284 32.763)"/></g></g></g></svg>