<svg xmlns="http://www.w3.org/2000/svg" width="97.5" viewBox="0 0 97.5 37.5" height="37.5" version="1.0"><g fill="#FF1616" fill-opacity=".302"><g><g><path d="M 4.285156 -8.570312 C 3.273438 -8.570312 2.445312 -9.398438 2.445312 -10.410156 C 2.445312 -11.421875 3.273438 -12.25 4.285156 -12.25 L 10.023438 -12.25 C 11.148438 -12.25 12.140625 -13.042969 12.398438 -14.144531 L 12.527344 -14.714844 L 4.285156 -14.714844 C 1.914062 -14.714844 0 -12.785156 0 -10.410156 C 0 -8.039062 1.914062 -6.125 4.285156 -6.125 L 8.242188 -6.125 C 9.253906 -6.125 10.082031 -5.296875 10.082031 -4.285156 C 10.082031 -3.273438 9.253906 -2.445312 8.242188 -2.445312 L 0 -2.445312 L 0.128906 -1.875 C 0.386719 -0.773438 1.359375 0 2.5 0 L 8.242188 0 C 10.613281 0 12.527344 -1.914062 12.527344 -4.285156 C 12.527344 -6.660156 10.613281 -8.570312 8.242188 -8.570312 Z M 4.285156 -8.570312" transform="translate(2.052 27.279)"/></g></g></g><g fill="#FF1616" fill-opacity=".302"><g><g><path d="M 12.175781 -0.109375 L 11.128906 -2.6875 L 7.375 -11.734375 L 7.503906 -12.03125 L 8.570312 -14.585938 L 8 -14.679688 C 7.300781 -14.789062 6.605469 -14.585938 6.089844 -14.144531 C 5.574219 -14.585938 4.875 -14.789062 4.175781 -14.679688 L 3.605469 -14.585938 L 4.671875 -12.03125 L 4.800781 -11.734375 L 1.046875 -2.667969 L 0 -0.109375 L 0.550781 -0.0195312 C 1.65625 0.148438 2.722656 -0.441406 3.144531 -1.453125 L 3.273438 -1.785156 L 6.089844 -8.589844 L 8.902344 -1.785156 L 9.03125 -1.453125 C 9.453125 -0.441406 10.523438 0.148438 11.625 -0.0195312 Z M 12.175781 -0.109375" transform="translate(15.682 27.279)"/></g></g></g><g fill="#FF1616" fill-opacity=".302"><g><g><path d="M 12.527344 -14.714844 L 11.957031 -14.566406 C 10.851562 -14.328125 10.082031 -13.335938 10.082031 -12.195312 L 10.082031 -3.660156 C 9.988281 -3.789062 9.914062 -3.917969 9.839844 -4.046875 L 7.761719 -7.0625 L 6.417969 -9.03125 L 2.445312 -14.714844 L 1.875 -14.566406 C 0.773438 -14.328125 0 -13.335938 0 -12.195312 L 0 0 L 0.550781 -0.128906 C 1.65625 -0.386719 2.445312 -1.359375 2.445312 -2.5 L 2.445312 -10.484375 L 4.394531 -7.632812 L 5.738281 -5.664062 L 10.082031 0 L 10.632812 -0.128906 C 11.734375 -0.386719 12.527344 -1.359375 12.527344 -2.5 Z M 12.527344 -14.714844" transform="translate(28.816 27.279)"/></g></g></g><g fill="#FF1616" fill-opacity=".302"><g><g><path d="M 12.527344 -9.839844 C 12.527344 -12.527344 10.355469 -14.714844 7.652344 -14.714844 L 0 -14.714844 L 0.128906 -14.144531 C 0.386719 -13.042969 1.359375 -12.25 2.5 -12.25 L 6.988281 -12.25 C 8.699219 -12.25 10.082031 -10.871094 10.082031 -9.179688 L 10.082031 -5.519531 C 10.082031 -3.824219 8.699219 -2.445312 6.988281 -2.445312 L 3.496094 -2.445312 C 2.90625 -2.445312 2.445312 -2.90625 2.445312 -3.496094 L 2.445312 -10.136719 C 2.445312 -11.277344 1.65625 -12.25 0.550781 -12.507812 L 0 -12.636719 L 0 0 L 7.652344 0 C 10.355469 0 12.527344 -2.171875 12.527344 -4.855469 Z M 12.527344 -9.839844" transform="translate(42.446 27.279)"/></g></g></g><g fill="#FF1616" fill-opacity=".302"><g><g><path d="M 12.175781 -0.109375 L 11.128906 -2.6875 L 7.375 -11.734375 L 7.503906 -12.03125 L 8.570312 -14.585938 L 8 -14.679688 C 7.300781 -14.789062 6.605469 -14.585938 6.089844 -14.144531 C 5.574219 -14.585938 4.875 -14.789062 4.175781 -14.679688 L 3.605469 -14.585938 L 4.671875 -12.03125 L 4.800781 -11.734375 L 1.046875 -2.667969 L 0 -0.109375 L 0.550781 -0.0195312 C 1.65625 0.148438 2.722656 -0.441406 3.144531 -1.453125 L 3.273438 -1.785156 L 6.089844 -8.589844 L 8.902344 -1.785156 L 9.03125 -1.453125 C 9.453125 -0.441406 10.523438 0.148438 11.625 -0.0195312 Z M 12.175781 -0.109375" transform="translate(56.113 27.279)"/></g></g></g><g fill="#FF1616" fill-opacity=".302"><g><g><path d="M 12.527344 -10.761719 C 12.527344 -12.929688 10.761719 -14.714844 8.570312 -14.714844 L 0 -14.714844 L 0 0 L 0.625 -0.128906 C 1.691406 -0.386719 2.445312 -1.34375 2.445312 -2.429688 L 2.445312 -12.25 L 8.3125 -12.25 C 9.289062 -12.25 10.082031 -11.460938 10.082031 -10.503906 L 10.082031 -9.695312 C 10.082031 -8.753906 9.308594 -7.984375 8.371094 -7.984375 L 3.128906 -7.984375 L 3.253906 -7.429688 C 3.496094 -6.417969 4.339844 -5.664062 5.351562 -5.554688 L 9.050781 -0.902344 C 9.75 -0.0195312 10.980469 0.257812 12.011719 -0.222656 L 12.527344 -0.476562 L 8.5 -5.535156 L 8.570312 -5.535156 C 10.761719 -5.535156 12.527344 -7.300781 12.527344 -9.492188 Z M 12.527344 -10.761719" transform="translate(69.247 27.279)"/></g></g></g><g fill="#FF1616" fill-opacity=".302"><g><g><path d="M 12.527344 -14.714844 L 11.957031 -14.566406 C 10.851562 -14.328125 10.082031 -13.335938 10.082031 -12.195312 L 10.082031 -6.253906 C 10.082031 -4.15625 8.371094 -2.445312 6.253906 -2.445312 C 4.15625 -2.445312 2.445312 -4.15625 2.445312 -6.253906 L 2.445312 -14.714844 L 1.875 -14.566406 C 0.773438 -14.328125 0 -13.335938 0 -12.195312 L 0 -5.867188 C 0 -2.628906 2.628906 0 5.867188 0 L 6.660156 0 C 9.894531 0 12.527344 -2.628906 12.527344 -5.867188 Z M 12.527344 -14.714844" transform="translate(82.877 27.279)"/></g></g></g><g fill="#FF1616" fill-opacity=".502"><g><g><path d="M 4.285156 -8.570312 C 3.273438 -8.570312 2.445312 -9.398438 2.445312 -10.410156 C 2.445312 -11.421875 3.273438 -12.25 4.285156 -12.25 L 10.023438 -12.25 C 11.148438 -12.25 12.140625 -13.042969 12.398438 -14.144531 L 12.527344 -14.714844 L 4.285156 -14.714844 C 1.914062 -14.714844 0 -12.785156 0 -10.410156 C 0 -8.039062 1.914062 -6.125 4.285156 -6.125 L 8.242188 -6.125 C 9.253906 -6.125 10.082031 -5.296875 10.082031 -4.285156 C 10.082031 -3.273438 9.253906 -2.445312 8.242188 -2.445312 L 0 -2.445312 L 0.128906 -1.875 C 0.386719 -0.773438 1.359375 0 2.5 0 L 8.242188 0 C 10.613281 0 12.527344 -1.914062 12.527344 -4.285156 C 12.527344 -6.660156 10.613281 -8.570312 8.242188 -8.570312 Z M 4.285156 -8.570312" transform="translate(1.79 25.621)"/></g></g></g><g fill="#FF1616" fill-opacity=".502"><g><g><path d="M 12.175781 -0.109375 L 11.128906 -2.6875 L 7.375 -11.734375 L 7.503906 -12.03125 L 8.570312 -14.585938 L 8 -14.679688 C 7.300781 -14.789062 6.605469 -14.585938 6.089844 -14.144531 C 5.574219 -14.585938 4.875 -14.789062 4.175781 -14.679688 L 3.605469 -14.585938 L 4.671875 -12.03125 L 4.800781 -11.734375 L 1.046875 -2.667969 L 0 -0.109375 L 0.550781 -0.0195312 C 1.65625 0.148438 2.722656 -0.441406 3.144531 -1.453125 L 3.273438 -1.785156 L 6.089844 -8.589844 L 8.902344 -1.785156 L 9.03125 -1.453125 C 9.453125 -0.441406 10.523438 0.148438 11.625 -0.0195312 Z M 12.175781 -0.109375" transform="translate(15.42 25.621)"/></g></g></g><g fill="#FF1616" fill-opacity=".502"><g><g><path d="M 12.527344 -14.714844 L 11.957031 -14.566406 C 10.851562 -14.328125 10.082031 -13.335938 10.082031 -12.195312 L 10.082031 -3.660156 C 9.988281 -3.789062 9.914062 -3.917969 9.839844 -4.046875 L 7.761719 -7.0625 L 6.417969 -9.03125 L 2.445312 -14.714844 L 1.875 -14.566406 C 0.773438 -14.328125 0 -13.335938 0 -12.195312 L 0 0 L 0.550781 -0.128906 C 1.65625 -0.386719 2.445312 -1.359375 2.445312 -2.5 L 2.445312 -10.484375 L 4.394531 -7.632812 L 5.738281 -5.664062 L 10.082031 0 L 10.632812 -0.128906 C 11.734375 -0.386719 12.527344 -1.359375 12.527344 -2.5 Z M 12.527344 -14.714844" transform="translate(28.553 25.621)"/></g></g></g><g fill="#FF1616" fill-opacity=".502"><g><g><path d="M 12.527344 -9.839844 C 12.527344 -12.527344 10.355469 -14.714844 7.652344 -14.714844 L 0 -14.714844 L 0.128906 -14.144531 C 0.386719 -13.042969 1.359375 -12.25 2.5 -12.25 L 6.988281 -12.25 C 8.699219 -12.25 10.082031 -10.871094 10.082031 -9.179688 L 10.082031 -5.519531 C 10.082031 -3.824219 8.699219 -2.445312 6.988281 -2.445312 L 3.496094 -2.445312 C 2.90625 -2.445312 2.445312 -2.90625 2.445312 -3.496094 L 2.445312 -10.136719 C 2.445312 -11.277344 1.65625 -12.25 0.550781 -12.507812 L 0 -12.636719 L 0 0 L 7.652344 0 C 10.355469 0 12.527344 -2.171875 12.527344 -4.855469 Z M 12.527344 -9.839844" transform="translate(42.184 25.621)"/></g></g></g><g fill="#FF1616" fill-opacity=".502"><g><g><path d="M 12.175781 -0.109375 L 11.128906 -2.6875 L 7.375 -11.734375 L 7.503906 -12.03125 L 8.570312 -14.585938 L 8 -14.679688 C 7.300781 -14.789062 6.605469 -14.585938 6.089844 -14.144531 C 5.574219 -14.585938 4.875 -14.789062 4.175781 -14.679688 L 3.605469 -14.585938 L 4.671875 -12.03125 L 4.800781 -11.734375 L 1.046875 -2.667969 L 0 -0.109375 L 0.550781 -0.0195312 C 1.65625 0.148438 2.722656 -0.441406 3.144531 -1.453125 L 3.273438 -1.785156 L 6.089844 -8.589844 L 8.902344 -1.785156 L 9.03125 -1.453125 C 9.453125 -0.441406 10.523438 0.148438 11.625 -0.0195312 Z M 12.175781 -0.109375" transform="translate(55.85 25.621)"/></g></g></g><g fill="#FF1616" fill-opacity=".502"><g><g><path d="M 12.527344 -10.761719 C 12.527344 -12.929688 10.761719 -14.714844 8.570312 -14.714844 L 0 -14.714844 L 0 0 L 0.625 -0.128906 C 1.691406 -0.386719 2.445312 -1.34375 2.445312 -2.429688 L 2.445312 -12.25 L 8.3125 -12.25 C 9.289062 -12.25 10.082031 -11.460938 10.082031 -10.503906 L 10.082031 -9.695312 C 10.082031 -8.753906 9.308594 -7.984375 8.371094 -7.984375 L 3.128906 -7.984375 L 3.253906 -7.429688 C 3.496094 -6.417969 4.339844 -5.664062 5.351562 -5.554688 L 9.050781 -0.902344 C 9.75 -0.0195312 10.980469 0.257812 12.011719 -0.222656 L 12.527344 -0.476562 L 8.5 -5.535156 L 8.570312 -5.535156 C 10.761719 -5.535156 12.527344 -7.300781 12.527344 -9.492188 Z M 12.527344 -10.761719" transform="translate(68.985 25.621)"/></g></g></g><g fill="#FF1616" fill-opacity=".502"><g><g><path d="M 12.527344 -14.714844 L 11.957031 -14.566406 C 10.851562 -14.328125 10.082031 -13.335938 10.082031 -12.195312 L 10.082031 -6.253906 C 10.082031 -4.15625 8.371094 -2.445312 6.253906 -2.445312 C 4.15625 -2.445312 2.445312 -4.15625 2.445312 -6.253906 L 2.445312 -14.714844 L 1.875 -14.566406 C 0.773438 -14.328125 0 -13.335938 0 -12.195312 L 0 -5.867188 C 0 -2.628906 2.628906 0 5.867188 0 L 6.660156 0 C 9.894531 0 12.527344 -2.628906 12.527344 -5.867188 Z M 12.527344 -14.714844" transform="translate(82.615 25.621)"/></g></g></g><g><g><g><path d="M 4.285156 -8.570312 C 3.273438 -8.570312 2.445312 -9.398438 2.445312 -10.410156 C 2.445312 -11.421875 3.273438 -12.25 4.285156 -12.25 L 10.023438 -12.25 C 11.148438 -12.25 12.140625 -13.042969 12.398438 -14.144531 L 12.527344 -14.714844 L 4.285156 -14.714844 C 1.914062 -14.714844 0 -12.785156 0 -10.410156 C 0 -8.039062 1.914062 -6.125 4.285156 -6.125 L 8.242188 -6.125 C 9.253906 -6.125 10.082031 -5.296875 10.082031 -4.285156 C 10.082031 -3.273438 9.253906 -2.445312 8.242188 -2.445312 L 0 -2.445312 L 0.128906 -1.875 C 0.386719 -0.773438 1.359375 0 2.5 0 L 8.242188 0 C 10.613281 0 12.527344 -1.914062 12.527344 -4.285156 C 12.527344 -6.660156 10.613281 -8.570312 8.242188 -8.570312 Z M 4.285156 -8.570312" transform="translate(1.527 23.963)"/></g></g></g><g><g><g><path d="M 12.175781 -0.109375 L 11.128906 -2.6875 L 7.375 -11.734375 L 7.503906 -12.03125 L 8.570312 -14.585938 L 8 -14.679688 C 7.300781 -14.789062 6.605469 -14.585938 6.089844 -14.144531 C 5.574219 -14.585938 4.875 -14.789062 4.175781 -14.679688 L 3.605469 -14.585938 L 4.671875 -12.03125 L 4.800781 -11.734375 L 1.046875 -2.667969 L 0 -0.109375 L 0.550781 -0.0195312 C 1.65625 0.148438 2.722656 -0.441406 3.144531 -1.453125 L 3.273438 -1.785156 L 6.089844 -8.589844 L 8.902344 -1.785156 L 9.03125 -1.453125 C 9.453125 -0.441406 10.523438 0.148438 11.625 -0.0195312 Z M 12.175781 -0.109375" transform="translate(15.157 23.963)"/></g></g></g><g><g><g><path d="M 12.527344 -14.714844 L 11.957031 -14.566406 C 10.851562 -14.328125 10.082031 -13.335938 10.082031 -12.195312 L 10.082031 -3.660156 C 9.988281 -3.789062 9.914062 -3.917969 9.839844 -4.046875 L 7.761719 -7.0625 L 6.417969 -9.03125 L 2.445312 -14.714844 L 1.875 -14.566406 C 0.773438 -14.328125 0 -13.335938 0 -12.195312 L 0 0 L 0.550781 -0.128906 C 1.65625 -0.386719 2.445312 -1.359375 2.445312 -2.5 L 2.445312 -10.484375 L 4.394531 -7.632812 L 5.738281 -5.664062 L 10.082031 0 L 10.632812 -0.128906 C 11.734375 -0.386719 12.527344 -1.359375 12.527344 -2.5 Z M 12.527344 -14.714844" transform="translate(28.29 23.963)"/></g></g></g><g><g><g><path d="M 12.527344 -9.839844 C 12.527344 -12.527344 10.355469 -14.714844 7.652344 -14.714844 L 0 -14.714844 L 0.128906 -14.144531 C 0.386719 -13.042969 1.359375 -12.25 2.5 -12.25 L 6.988281 -12.25 C 8.699219 -12.25 10.082031 -10.871094 10.082031 -9.179688 L 10.082031 -5.519531 C 10.082031 -3.824219 8.699219 -2.445312 6.988281 -2.445312 L 3.496094 -2.445312 C 2.90625 -2.445312 2.445312 -2.90625 2.445312 -3.496094 L 2.445312 -10.136719 C 2.445312 -11.277344 1.65625 -12.25 0.550781 -12.507812 L 0 -12.636719 L 0 0 L 7.652344 0 C 10.355469 0 12.527344 -2.171875 12.527344 -4.855469 Z M 12.527344 -9.839844" transform="translate(41.921 23.963)"/></g></g></g><g><g><g><path d="M 12.175781 -0.109375 L 11.128906 -2.6875 L 7.375 -11.734375 L 7.503906 -12.03125 L 8.570312 -14.585938 L 8 -14.679688 C 7.300781 -14.789062 6.605469 -14.585938 6.089844 -14.144531 C 5.574219 -14.585938 4.875 -14.789062 4.175781 -14.679688 L 3.605469 -14.585938 L 4.671875 -12.03125 L 4.800781 -11.734375 L 1.046875 -2.667969 L 0 -0.109375 L 0.550781 -0.0195312 C 1.65625 0.148438 2.722656 -0.441406 3.144531 -1.453125 L 3.273438 -1.785156 L 6.089844 -8.589844 L 8.902344 -1.785156 L 9.03125 -1.453125 C 9.453125 -0.441406 10.523438 0.148438 11.625 -0.0195312 Z M 12.175781 -0.109375" transform="translate(55.588 23.963)"/></g></g></g><g><g><g><path d="M 12.527344 -10.761719 C 12.527344 -12.929688 10.761719 -14.714844 8.570312 -14.714844 L 0 -14.714844 L 0 0 L 0.625 -0.128906 C 1.691406 -0.386719 2.445312 -1.34375 2.445312 -2.429688 L 2.445312 -12.25 L 8.3125 -12.25 C 9.289062 -12.25 10.082031 -11.460938 10.082031 -10.503906 L 10.082031 -9.695312 C 10.082031 -8.753906 9.308594 -7.984375 8.371094 -7.984375 L 3.128906 -7.984375 L 3.253906 -7.429688 C 3.496094 -6.417969 4.339844 -5.664062 5.351562 -5.554688 L 9.050781 -0.902344 C 9.75 -0.0195312 10.980469 0.257812 12.011719 -0.222656 L 12.527344 -0.476562 L 8.5 -5.535156 L 8.570312 -5.535156 C 10.761719 -5.535156 12.527344 -7.300781 12.527344 -9.492188 Z M 12.527344 -10.761719" transform="translate(68.722 23.963)"/></g></g></g><g><g><g><path d="M 12.527344 -14.714844 L 11.957031 -14.566406 C 10.851562 -14.328125 10.082031 -13.335938 10.082031 -12.195312 L 10.082031 -6.253906 C 10.082031 -4.15625 8.371094 -2.445312 6.253906 -2.445312 C 4.15625 -2.445312 2.445312 -4.15625 2.445312 -6.253906 L 2.445312 -14.714844 L 1.875 -14.566406 C 0.773438 -14.328125 0 -13.335938 0 -12.195312 L 0 -5.867188 C 0 -2.628906 2.628906 0 5.867188 0 L 6.660156 0 C 9.894531 0 12.527344 -2.628906 12.527344 -5.867188 Z M 12.527344 -14.714844" transform="translate(82.352 23.963)"/></g></g></g></svg>